<?xml version="1.0" encoding="UTF-8"?>
<svg width="121px" height="121px" viewBox="0 0 121 121" version="1.1" xmlns="http://www.w3.org/2000/svg" xmlns:xlink="http://www.w3.org/1999/xlink">
    <!-- Generator: Sketch 48.2 (47327) - http://www.bohemiancoding.com/sketch -->
    <title>prohibited</title>
    <desc>Created with Sketch.</desc>
    <defs></defs>
    <g id="Cancel-Order-" stroke="none" stroke-width="1" fill="none" fill-rule="evenodd" transform="translate(-900.000000, -261.000000)">
        <g id="Group-34" transform="translate(619.000000, 179.000000)" fill-rule="nonzero">
            <g id="Group-33" transform="translate(81.000000, 82.000000)">
                <g id="prohibited" transform="translate(200.000000, 0.000000)">
                    <g id="Group" transform="translate(9.000000, 9.000000)" fill="#FFFFFF">
                        <circle id="Oval" cx="51.9995273" cy="51.9995273" r="51.9458727"></circle>
                        <path d="M15.7564727,76.5406909 L76.5406909,15.7569455 C69.5414909,11.0086364 61.0950364,8.23372727 52,8.23372727 C27.8282727,8.23372727 8.23325455,27.8289818 8.23325455,52.0004727 C8.23325455,61.0948 11.0081636,69.5414909 15.7564727,76.5406909 Z" id="Shape"></path>
                    </g>
                    <path d="M20.0044576,77 C19.8894443,75.585575 19.8292329,74.1557267 19.8292329,72.7114045 C19.8292329,44.076238 42.8394174,20.8626783 71.2237098,20.8626783 C74.2159369,20.8626783 77.1481878,21.1208387 80,21.6160417 C74.1460822,18.6630943 67.541638,17 60.5514642,17 C36.4986336,17 17,36.6712093 17,60.9363932 C17.0002352,66.6059573 18.0656957,72.0242421 20.0044576,77 Z" id="Shape" fill="#000000" opacity="0.1"></path>
                    <path d="M60.5,0 C27.0868539,0 0,27.0868539 0,60.5 C0,93.9131461 27.0868539,121 60.5,121 C93.9131461,121 121,93.9131461 121,60.5 C121,27.0868539 93.9136188,0 60.5,0 Z M16.7398955,60.5 C16.7398955,36.3318099 36.3322825,16.7396591 60.5002363,16.7396591 C69.5939418,16.7396591 78.0391603,19.5141622 85.0373361,24.2617764 L24.2620127,85.0373361 C19.5143985,78.0391603 16.7398955,69.5937054 16.7398955,60.5 Z M60.5,104.260577 C51.4062946,104.260577 42.961076,101.486074 35.9629002,96.7384599 L96.7384599,35.9633729 C101.486074,42.9615487 104.260577,51.4067672 104.260577,60.5004727 C104.260577,84.6681901 84.6681901,104.260577 60.5,104.260577 Z" id="Shape" fill="#FF6465"></path>
                </g>
            </g>
        </g>
    </g>
</svg>