<?xml version="1.0" encoding="UTF-8"?>
<svg width="50px" height="50px" viewBox="0 0 50 50" version="1.1" xmlns="http://www.w3.org/2000/svg" xmlns:xlink="http://www.w3.org/1999/xlink">
    <!-- Generator: Sketch 48.2 (47327) - http://www.bohemiancoding.com/sketch -->
    <title>error</title>
    <desc>Created with Sketch.</desc>
    <defs></defs>
    <g id="Cancellations" stroke="none" stroke-width="1" fill="none" fill-rule="evenodd" transform="translate(-231.000000, -593.000000)">
        <g id="Group-10" transform="translate(198.000000, 555.000000)" fill="#FFFFFF" fill-rule="nonzero">
            <g id="error" transform="translate(33.000000, 38.000000)">
                <path d="M42.6663462,7.31057692 C32.9192308,-2.43653846 17.0586538,-2.4375 7.31057692,7.31057692 C-2.4375,17.0586538 -2.43653846,32.9182692 7.31057692,42.6663462 C17.0576923,52.4144231 32.9182692,52.4144231 42.6663462,42.6663462 C52.4134615,32.9182692 52.4134615,17.0576923 42.6663462,7.31057692 Z M34.8471154,34.8471154 C34.0961538,35.5980769 32.8788462,35.5980769 32.1278846,34.8471154 L24.9884615,27.7076923 L17.5096154,35.1865385 C16.7586538,35.9375 15.5413462,35.9375 14.7903846,35.1865385 C14.0394231,34.4355769 14.0394231,33.2182692 14.7903846,32.4673077 L22.2692308,24.9884615 L15.1298077,17.8490385 C14.3788462,17.0980769 14.3788462,15.8798077 15.1298077,15.1298077 C15.8807692,14.3788462 17.0980769,14.3788462 17.8490385,15.1298077 L24.9884615,22.2692308 L31.7875,15.4701923 C32.5384615,14.7192308 33.7557692,14.7192308 34.5067308,15.4701923 C35.2576923,16.2211538 35.2576923,17.4384615 34.5067308,18.1894231 L27.7076923,24.9884615 L34.8471154,32.1278846 C35.5980769,32.8788462 35.5980769,34.0961538 34.8471154,34.8471154 Z" id="Shape"></path>
            </g>
        </g>
    </g>
</svg>