<?xml version="1.0" encoding="UTF-8"?>
<svg width="30px" height="30px" viewBox="0 0 30 30" version="1.1" xmlns="http://www.w3.org/2000/svg" xmlns:xlink="http://www.w3.org/1999/xlink">
    <!-- Generator: Sketch 48.2 (47327) - http://www.bohemiancoding.com/sketch -->
    <title>close (6)</title>
    <desc>Created with Sketch.</desc>
    <defs></defs>
    <g id="Login" stroke="none" stroke-width="1" fill="none" fill-rule="evenodd" transform="translate(-1111.000000, -291.000000)">
        <g id="Group-40" transform="translate(735.000000, 247.000000)" fill="#15226E" fill-rule="nonzero">
            <g id="Group-35" transform="translate(44.000000, 36.000000)">
                <g id="close-(6)" transform="translate(332.000000, 8.000000)">
                    <path d="M25.606582,4.39341797 C22.7735156,1.56023438 19.0065234,0 15,0 C10.9933594,0 7.22654297,1.56023438 4.39341797,4.39335938 C1.56029297,7.22648438 0,10.9933594 0,15 C0,19.0066992 1.56023438,22.7735156 4.39341797,25.6066406 C7.22648438,28.4397656 10.9933594,30 14.9999414,30 C19.0065234,30 22.7735156,28.4397656 25.606582,25.6066406 C28.439707,22.773457 30,19.0066406 30,15 C30,10.9933008 28.439707,7.22648438 25.606582,4.39341797 Z M21.6124805,20.3696484 C21.9556641,20.712832 21.9556641,21.2693555 21.6124805,21.6125977 C21.4408008,21.7842187 21.215918,21.87 20.9909766,21.87 C20.7660937,21.87 20.5410937,21.7841602 20.3695898,21.6125977 L15,16.2430078 L9.63041016,21.6125977 C9.45873047,21.7842187 9.23384766,21.87 9.00890625,21.87 C8.78402344,21.87 8.55902344,21.7841602 8.38751953,21.6125977 C8.04427734,21.2694141 8.04427734,20.7128906 8.38751953,20.3696484 L13.7570508,15.0000586 L8.38751953,9.63046875 C8.04427734,9.28728516 8.04427734,8.73076172 8.38751953,8.38751953 C8.73070312,8.04433594 9.28716797,8.04433594 9.63046875,8.38751953 L15,13.7571094 L20.3695312,8.38751953 C20.7127148,8.04433594 21.2692383,8.04433594 21.6124805,8.38751953 C21.9556641,8.73070312 21.9556641,9.28722656 21.6124805,9.63046875 L16.2428906,15.0000586 L21.6124805,20.3696484 Z" id="Shape"></path>
                </g>
            </g>
        </g>
    </g>
</svg>