<?xml version="1.0" encoding="UTF-8"?>
<svg width="73px" height="60px" viewBox="0 0 73 60" version="1.1" xmlns="http://www.w3.org/2000/svg" xmlns:xlink="http://www.w3.org/1999/xlink">
    <!-- Generator: Sketch 48.2 (47327) - http://www.bohemiancoding.com/sketch -->
    <title>man (3)</title>
    <desc>Created with Sketch.</desc>
    <defs></defs>
    <g id="Order-Request" stroke="none" stroke-width="1" fill="none" fill-rule="evenodd" transform="translate(-476.000000, -911.000000)">
        <g id="Group-23" transform="translate(263.000000, 242.000000)" fill-rule="nonzero">
            <g id="Group-21" transform="translate(0.000000, 165.000000)">
                <g id="Group-16" transform="translate(1.000000, 253.000000)">
                    <g id="Group-10" transform="translate(179.000000, 224.000000)">
                        <g id="man-(3)" transform="translate(33.000000, 27.000000)">
                            <polygon id="Shape" fill="#EF4C35" points="40.7257426 21.7540594 42.8572277 16.0776238 36.3182178 11.2659406 29.7576238 16.0942574 32.1287129 21.7540594"></polygon>
                            <polygon id="Shape" fill="#DD3E2B" points="32.1287129 21.7540594 32.2536634 22.0526733 30.4484102 40.1980198 36.4356436 59.9252747 43.5508911 40.1980198 40.6205941 22.0352475 40.7257426 21.7540594"></polygon>
                            <polygon id="Shape" fill="#D2D2D7" points="31.1508911 40.1980198 34.1134653 21.8322772 31.2506931 14.9960396 22.0653465 6.26277228 23.8635644 19.3578218 29.7005941 40.1980198"></polygon>
                            <polygon id="Shape" fill="#E4E4EA" points="43.2041584 40.1980198 49.1085149 19.1172277 50.9077228 6.01920792 41.350297 14.969901 38.7671287 21.849901 41.7269307 40.1980198"></polygon>
                            <path d="M43.34,18.6479208 C45.230297,20.0390099 46.3734653,18.8005941 46.800396,18.1562376 L52.8227723,5.77782178 L45.050297,0.647524752 L43.2156436,3.95108911 L36.379604,11.0473267 L29.7273267,4.56732673 L28.4380198,0.0863366337 L19.8144554,5.77742574 L25.6948515,17.8641584 C25.8574257,18.1857426 27.050099,20.3209901 29.3243564,18.649505 L36.3182178,13.5023762 L42.9839604,18.4075248 C43.089703,18.4718812 43.2065347,18.549505 43.34,18.6479208 Z" id="Shape" fill="#F5F5F7"></path>
                            <g id="Group" transform="translate(0.000000, 4.554455)" fill="#324A5E">
                                <path d="M3.83841584,55.3757647 L36.4356436,55.3757647 L21.6330693,0.164950495 L11.3837624,4.4360396 C7.20712871,5.90237624 0.162574257,11.2029703 0.162574257,21.7982178 L0.162574257,31.9718812 C0.217623762,33.0693069 0.681980198,55.3757647 3.83841584,55.3757647 Z" id="Shape"></path>
                                <path d="M72.3128713,32.0952475 L72.3128713,21.7988119 C72.3128713,11.0732673 64.9861386,5.75881188 61.090297,4.43584158 L51.2265347,0.325742574 L36.4356436,55.3759627 L68.6445545,55.3759627 C71.6883168,55.3757647 72.2289109,33.2493069 72.3128713,32.0952475 Z" id="Shape"></path>
                            </g>
                            <g id="Group" transform="translate(0.000000, 4.554455)" fill="#283D4C">
                                <path d="M21.6330693,0.165148515 L11.3837624,4.43623762 C7.20712871,5.90257426 0.162574257,11.2031683 0.162574257,21.7984158 L0.162574257,31.9720792 C0.217623762,33.0691089 0.682178218,55.3755667 3.83841584,55.3755667 L4.29841584,55.3755667 L4.29841584,21.7984158 C4.29841584,11.2029703 11.3427723,5.90237624 15.5057426,4.44138614 L22.0653465,1.70831683 L21.6330693,0.165148515 Z" id="Shape"></path>
                                <path d="M60.7631683,55.3757647 L60.7631683,21.4990099 C60.7631683,20.6106931 60.0431683,19.8908911 59.1550495,19.8908911 C58.2667327,19.8908911 57.5469307,20.6106931 57.5469307,21.4990099 L57.5469307,55.3757647 L60.7631683,55.3757647 Z" id="Shape"></path>
                                <path d="M15.3312871,55.3757647 L15.3312871,21.4990099 C15.3312871,20.6106931 14.6114851,19.8908911 13.7231683,19.8908911 C12.8348515,19.8908911 12.1150495,20.6106931 12.1150495,21.4990099 L12.1150495,55.3757647 L15.3312871,55.3757647 Z" id="Shape"></path>
                            </g>
                        </g>
                    </g>
                </g>
            </g>
        </g>
    </g>
</svg>