<?xml version="1.0" encoding="UTF-8"?>
<svg width="47px" height="40px" viewBox="0 0 47 40" version="1.1" xmlns="http://www.w3.org/2000/svg" xmlns:xlink="http://www.w3.org/1999/xlink">
    <!-- Generator: Sketch 48.2 (47327) - http://www.bohemiancoding.com/sketch -->
    <title>Group 3</title>
    <desc>Created with Sketch.</desc>
    <defs></defs>
    <g id="Payment" stroke="none" stroke-width="1" fill="none" fill-rule="evenodd" transform="translate(-1071.000000, -549.000000)">
        <g id="Group-3" transform="translate(1071.000000, 549.000000)">
            <path d="M0.782396088,11.7359413 L0.782396088,30.5134474 C0.785070318,31.3764517 1.48418396,32.0755654 2.34718826,32.0782396 L24.9820446,32.0782396 C24.9629432,32.030486 24.9507182,31.9804401 24.9335268,31.9326865 C24.8471883,31.6981204 24.765816,31.4631724 24.6985789,31.2286064 C24.6641962,31.1090312 24.6359261,30.9860177 24.6057457,30.8641504 C24.5537897,30.6620568 24.5014517,30.4618734 24.4617207,30.2559597 C24.426574,30.0737316 24.4028881,29.8884474 24.3772921,29.7027812 C24.3551345,29.5465311 24.3261002,29.3898992 24.3115832,29.2332671 C24.2737622,28.8806541 24.2542787,28.5261309 24.2542787,28.1662592 C24.2542787,22.1168245 29.1583893,17.2127139 35.207824,17.2127139 C41.2572586,17.2127139 46.1613692,22.1168245 46.1613692,28.1662592 L46.1613692,11.7359413 L0.782396088,11.7359413 Z" id="Shape" fill="#9BC9FF" fill-rule="nonzero"></path>
            <path d="M44.596577,0.782396088 L2.34718826,0.782396088 C1.48418396,0.785070318 0.785070318,1.48418396 0.782396088,2.34718826 L0.782396088,7.04156479 L46.1613692,7.04156479 L46.1613692,2.34718826 C46.158695,1.48418396 45.4595813,0.785070318 44.596577,0.782396088 Z" id="Shape" fill="#9BC9FF" fill-rule="nonzero"></path>
            <path d="M35.207824,17.2127139 C41.2572586,17.2127139 46.1613692,22.1168245 46.1613692,28.1662592 C46.1613692,22.1168245 41.2572586,17.2127139 35.207824,17.2127139 Z" id="Shape" fill="#9BC9FF" fill-rule="nonzero"></path>
            <path d="M35.207824,17.2127139 C29.1583893,17.2127139 24.2542787,22.1168245 24.2542787,28.1662592 C24.2542787,22.1168245 29.1583893,17.2127139 35.207824,17.2127139 Z" id="Shape" fill="#9BC9FF" fill-rule="nonzero"></path>
            <path d="M44.596577,0 L2.34718826,0 C1.05096274,0 0,1.05096274 0,2.34718826 L0,30.5134474 C0,31.809673 1.05096274,32.8606357 2.34718826,32.8606357 L24.4586644,32.8606357 C26.6801651,37.9534689 32.1703087,40.7892726 37.6092604,39.6538815 C43.0485941,38.5181082 46.9452934,33.7228759 46.9437653,28.1662592 L46.9437653,2.34718826 C46.9437653,1.05096274 45.8928025,0 44.596577,0 Z M1.56479218,7.82396088 L45.3789731,7.82396088 L45.3789731,10.9535452 L1.56479218,10.9535452 L1.56479218,7.82396088 Z M2.34718826,1.56479218 L44.596577,1.56479218 C45.0286522,1.56479218 45.3789731,1.91511306 45.3789731,2.34718826 L45.3789731,6.2591687 L1.56479218,6.2591687 L1.56479218,2.34718826 C1.56479218,1.91511306 1.91511306,1.56479218 2.34718826,1.56479218 Z M35.207824,38.3374083 C30.9168704,38.3301497 27.0916107,35.6326406 25.6437194,31.5930623 C25.5741901,31.4031937 25.5084811,31.2121791 25.4511766,31.0188723 C25.4091534,30.8748471 25.3732426,30.7277659 25.33886,30.5806846 C25.3040954,30.4336033 25.260544,30.2678025 25.2276895,30.1111706 C25.1891045,29.9148074 25.1627444,29.7146241 25.1360024,29.5144407 C25.1203393,29.3952475 25.0985635,29.2794926 25.0867207,29.1568612 C25.0553942,28.828316 25.0366748,28.4993888 25.0366748,28.1662592 C25.0366748,22.5488998 29.5904645,17.99511 35.207824,17.99511 C40.8251834,17.99511 45.3789731,22.5488998 45.3789731,28.1662592 C45.3789731,33.7836186 40.8251834,38.3374083 35.207824,38.3374083 Z M44.8781326,21.5307916 C44.7092757,21.2862928 44.53125,21.0482885 44.3436735,20.8171608 C44.2920997,20.7522157 44.2397616,20.6872708 44.1874236,20.6238539 C43.9738691,20.3705684 43.7522922,20.1233955 43.5184902,19.8884474 C43.4940403,19.8636156 43.4676803,19.8406938 43.4401742,19.8166259 C43.2250916,19.6038356 42.9996944,19.400978 42.7681846,19.205379 C42.7047677,19.1515129 42.6413508,19.0984108 42.5764059,19.049129 C42.318154,18.8393948 42.0537897,18.6380654 41.7775825,18.451253 C41.7542787,18.4348258 41.7283007,18.4206907 41.704997,18.4042635 C41.4475091,18.2331143 41.1823808,18.0741901 40.9122861,17.9232885 C40.8377903,17.8816473 40.7644407,17.8400061 40.6891809,17.800275 C40.3927262,17.643643 40.091687,17.4942695 39.7810972,17.3620874 C39.7619957,17.3544468 39.7417482,17.3479523 39.7222646,17.3395477 C39.4281021,17.2165342 39.1259169,17.1045996 38.8202934,17.0083282 C38.7419774,16.9819682 38.6548747,16.9559902 38.5719744,16.9303942 C38.2441932,16.8318307 37.9133557,16.7424358 37.5744957,16.6729065 L37.5401131,16.667558 C37.2123319,16.600703 36.8772921,16.5521852 36.5395783,16.5109261 C36.4509475,16.5006112 36.3626987,16.4914425 36.2733038,16.48342 C35.9229829,16.4520935 35.5676956,16.4303178 35.207824,16.4303178 C28.7293704,16.4375764 23.4791412,21.6878056 23.4718826,28.1662592 C23.4718826,28.5230746 23.4936583,28.8775978 23.5257488,29.2294468 C23.5337713,29.3196058 23.54294,29.4086186 23.5532549,29.4987775 C23.5899297,29.8227384 23.6369193,30.1447891 23.7011002,30.4641657 C23.710651,30.5111552 23.7205838,30.5573808 23.7301345,30.6043705 C23.7801803,30.8389364 23.8340465,31.0673899 23.8982274,31.2958435 L2.34718826,31.2958435 C1.91511306,31.2958435 1.56479218,30.9455226 1.56479218,30.5134474 L1.56479218,12.5183374 L45.3789731,12.5183374 L45.3789731,22.3154798 C45.2444988,22.0809138 45.1012378,21.8562806 44.9518643,21.6339395 C44.9281785,21.5987928 44.9025825,21.5659383 44.8781326,21.5307916 Z" id="Shape" fill="#1E81CE" fill-rule="nonzero"></path>
            <polygon id="Shape" fill="#1E81CE" fill-rule="nonzero" points="2.34718826 8.60635697 3.91198044 8.60635697 3.91198044 10.1711491 2.34718826 10.1711491"></polygon>
            <polygon id="Shape" fill="#1E81CE" fill-rule="nonzero" points="5.47677262 8.60635697 7.04156479 8.60635697 7.04156479 10.1711491 5.47677262 10.1711491"></polygon>
            <polygon id="Shape" fill="#1E81CE" fill-rule="nonzero" points="8.60635697 8.60635697 10.1711491 8.60635697 10.1711491 10.1711491 8.60635697 10.1711491"></polygon>
            <polygon id="Shape" fill="#1E81CE" fill-rule="nonzero" points="11.7359413 8.60635697 13.3007335 8.60635697 13.3007335 10.1711491 11.7359413 10.1711491"></polygon>
            <polygon id="Shape" fill="#1E81CE" fill-rule="nonzero" points="14.8655257 8.60635697 16.4303178 8.60635697 16.4303178 10.1711491 14.8655257 10.1711491"></polygon>
            <polygon id="Shape" fill="#1E81CE" fill-rule="nonzero" points="17.99511 8.60635697 19.5599022 8.60635697 19.5599022 10.1711491 17.99511 10.1711491"></polygon>
            <polygon id="Shape" fill="#1E81CE" fill-rule="nonzero" points="21.1246944 8.60635697 22.6894866 8.60635697 22.6894866 10.1711491 21.1246944 10.1711491"></polygon>
            <polygon id="Shape" fill="#1E81CE" fill-rule="nonzero" points="24.2542787 8.60635697 25.8190709 8.60635697 25.8190709 10.1711491 24.2542787 10.1711491"></polygon>
            <polygon id="Shape" fill="#1E81CE" fill-rule="nonzero" points="27.3838631 8.60635697 28.9486553 8.60635697 28.9486553 10.1711491 27.3838631 10.1711491"></polygon>
            <polygon id="Shape" fill="#1E81CE" fill-rule="nonzero" points="30.5134474 8.60635697 32.0782396 8.60635697 32.0782396 10.1711491 30.5134474 10.1711491"></polygon>
            <polygon id="Shape" fill="#1E81CE" fill-rule="nonzero" points="33.6430318 8.60635697 35.207824 8.60635697 35.207824 10.1711491 33.6430318 10.1711491"></polygon>
            <polygon id="Shape" fill="#1E81CE" fill-rule="nonzero" points="36.7726161 8.60635697 38.3374083 8.60635697 38.3374083 10.1711491 36.7726161 10.1711491"></polygon>
            <polygon id="Shape" fill="#1E81CE" fill-rule="nonzero" points="39.9022005 8.60635697 41.4669927 8.60635697 41.4669927 10.1711491 39.9022005 10.1711491"></polygon>
            <polygon id="Shape" fill="#1E81CE" fill-rule="nonzero" points="43.0317848 8.60635697 44.596577 8.60635697 44.596577 10.1711491 43.0317848 10.1711491"></polygon>
            <polygon id="Shape" fill="#1E81CE" fill-rule="nonzero" points="3.12958435 28.1662592 8.60635697 28.1662592 8.60635697 29.7310513 3.12958435 29.7310513"></polygon>
            <polygon id="Shape" fill="#1E81CE" fill-rule="nonzero" points="10.1711491 28.1662592 21.9070905 28.1662592 21.9070905 29.7310513 10.1711491 29.7310513"></polygon>
            <polygon id="Shape" fill="#1E81CE" fill-rule="nonzero" points="3.12958435 25.0366748 13.3007335 25.0366748 13.3007335 26.601467 3.12958435 26.601467"></polygon>
            <polygon id="Shape" fill="#1E81CE" fill-rule="nonzero" points="15.6479218 25.0366748 21.9070905 25.0366748 21.9070905 26.601467 15.6479218 26.601467"></polygon>
            <path d="M36.9292481,23.4875458 C36.5055776,23.4031174 36.09375,23.6777965 36.0089395,24.101085 L35.207824,28.0879432 L34.4097647,24.0976467 C34.3635392,23.815709 34.166794,23.5811431 33.8970813,23.4863998 C33.6269866,23.3916565 33.3270935,23.4516351 33.1146852,23.6430318 C32.9018949,23.8340465 32.8105898,24.1262989 32.8762989,24.4044162 L34.4410911,32.2283771 C34.5152048,32.5932152 34.8357273,32.8552872 35.207824,32.8552872 C35.5799206,32.8552872 35.9004431,32.5932152 35.9745569,32.2283771 L37.539349,24.4044162 C37.6218674,23.9830378 37.3494805,23.5738845 36.9292481,23.4875458 Z" id="Shape" fill="#1E81CE" fill-rule="nonzero"></path>
            <path d="M41.4826558,24.0976467 L40.6845966,28.0879432 L39.8865373,24.0976467 C39.8403118,23.815709 39.6435667,23.5811431 39.3738539,23.4863998 C39.1037592,23.3916565 38.8038661,23.4516351 38.5914578,23.6430318 C38.3786675,23.8340465 38.2873624,24.1262989 38.3530715,24.4044162 L39.9178637,32.2283771 C39.9919774,32.5932152 40.3125,32.8552872 40.6845966,32.8552872 C41.0566932,32.8552872 41.3772157,32.5932152 41.4513295,32.2283771 L43.0161217,24.4044162 C43.0818307,24.1262989 42.9905257,23.8340465 42.7777354,23.6430318 C42.565327,23.4516351 42.2654339,23.3916565 41.9953393,23.4863998 C41.7256265,23.5811431 41.5288814,23.815709 41.4826558,24.0976467 Z" id="Shape" fill="#1E81CE" fill-rule="nonzero"></path>
            <path d="M30.5134474,23.4718826 L28.9486553,23.4718826 C28.0845048,23.4718826 27.3838631,24.1725244 27.3838631,25.0366748 L27.3838631,31.2958435 C27.3838631,32.1599939 28.0845048,32.8606357 28.9486553,32.8606357 L30.5134474,32.8606357 C31.3775978,32.8606357 32.0782396,32.1599939 32.0782396,31.2958435 L32.0782396,30.5134474 C32.0782396,30.0813722 31.7279187,29.7310513 31.2958435,29.7310513 C30.8637683,29.7310513 30.5134474,30.0813722 30.5134474,30.5134474 L30.5134474,31.2958435 L28.9486553,31.2958435 L28.9486553,25.0366748 L30.5134474,25.0366748 L30.5134474,25.8190709 C30.5134474,26.2511461 30.8637683,26.601467 31.2958435,26.601467 C31.7279187,26.601467 32.0782396,26.2511461 32.0782396,25.8190709 L32.0782396,25.0366748 C32.0782396,24.1725244 31.3775978,23.4718826 30.5134474,23.4718826 Z" id="Shape" fill="#1E81CE" fill-rule="nonzero"></path>
            <g id="cvv">
                <g id="Group"></g>
            </g>
        </g>
    </g>
</svg>