<?xml version="1.0" encoding="UTF-8"?>
<svg width="189px" height="189px" viewBox="0 0 189 189" version="1.1" xmlns="http://www.w3.org/2000/svg" xmlns:xlink="http://www.w3.org/1999/xlink">
    <!-- Generator: Sketch 48.2 (47327) - http://www.bohemiancoding.com/sketch -->
    <title>Group 33</title>
    <desc>Created with Sketch.</desc>
    <defs></defs>
    <g id="Home" stroke="none" stroke-width="1" fill="none" fill-rule="evenodd" transform="translate(-1414.000000, -1355.000000)">
        <g id="Group-10" transform="translate(187.000000, 1096.000000)">
            <g id="Group-8" transform="translate(0.000000, 228.000000)">
                <g id="Group-5" transform="translate(1096.000000, 0.000000)">
                    <g id="Group-33" transform="translate(131.000000, 31.000000)">
                        <circle id="Oval-2" fill-opacity="0.269644475" fill="#FFFFFF" cx="94.5" cy="94.5" r="94.5"></circle>
                        <g id="delivery-man" transform="translate(26.000000, 31.000000)" fill-rule="nonzero">
                            <path d="M113.016892,25.7022973 C107.744899,25.7022973 103.460473,21.4157432 103.460473,16.1501351 C103.460473,10.8802703 107.747027,6.59371622 113.016892,6.59371622 C118.284628,6.59371622 122.569054,10.8823986 122.569054,16.1501351 C122.569054,21.4157432 118.284628,25.7022973 113.016892,25.7022973 Z M113.016892,10.8483446 C110.094628,10.8483446 107.71723,13.2257432 107.71723,16.1480068 C107.71723,19.0681419 110.094628,21.4434122 113.016892,21.4434122 C115.939155,21.4434122 118.312297,19.0681419 118.312297,16.1480068 C118.312297,13.2257432 115.939155,10.8483446 113.016892,10.8483446 Z" id="Shape" fill="#EDAB37"></path>
                            <path d="M113.016892,25.6980405 C111.839899,25.6980405 110.888514,24.7466554 110.888514,23.5696622 L110.888514,17.184527 C110.888514,16.0075338 111.839899,15.0561486 113.016892,15.0561486 C114.193885,15.0561486 115.14527,16.0075338 115.14527,17.184527 L115.14527,23.5696622 C115.14527,24.744527 114.193885,25.6980405 113.016892,25.6980405 Z" id="Shape" fill="#F6BB42"></path>
                            <path d="M115.14527,19.3129054 L110.888514,19.3129054 C109.71152,19.3129054 108.760135,18.3615203 108.760135,17.184527 C108.760135,16.0075338 109.71152,15.0561486 110.888514,15.0561486 L115.14527,15.0561486 C116.322264,15.0561486 117.273649,16.0075338 117.273649,17.184527 C117.273649,18.3615203 116.322264,19.3129054 115.14527,19.3129054 Z" id="Shape" fill="#FFCE54"></path>
                            <path d="M47.0371622,6.60010135 C45.8601689,6.60010135 44.9087838,5.64871622 44.9087838,4.47172297 L44.9087838,2.34334459 C44.9087838,1.16635135 45.8601689,0.214966216 47.0371622,0.214966216 C48.2141554,0.214966216 49.1655405,1.16635135 49.1655405,2.34334459 L49.1655405,4.47172297 C49.1655405,5.64871622 48.2141554,6.60010135 47.0371622,6.60010135 Z" id="Shape" fill="#1BA090"></path>
                            <path d="M122.594595,59.2944932 C119.785135,60.935473 116.509561,61.8698311 113.016892,61.8698311 C109.52848,61.8698311 106.248649,60.935473 103.439189,59.2944932 C100.525439,57.6130743 98.0969595,55.186723 96.4389527,52.2708446 C94.8001014,49.4613851 93.8614865,46.2049662 93.8614865,42.7144257 C93.8614865,39.2238851 94.8001014,35.9461824 96.4389527,33.136723 C98.1182432,30.2208446 100.546723,27.7944932 103.439189,26.1343581 C106.186926,24.5380743 109.358209,23.6037162 112.742331,23.5590203 C112.825338,23.5824324 112.933885,23.5824324 113.016892,23.5824324 C113.104155,23.5824324 113.208446,23.5824324 113.295709,23.5590203 C116.679831,23.6037162 119.851115,24.5380743 122.594595,26.1343581 C125.491318,27.7944932 127.915541,30.2208446 129.599088,33.136723 C131.237939,35.9461824 132.172297,39.2238851 132.172297,42.7144257 C132.172297,46.2070946 131.237939,49.4847973 129.599088,52.2921284 C127.915541,55.2080068 125.491318,57.6343581 122.594595,59.2944932 Z" id="Shape" fill="#E6E9ED"></path>
                            <path d="M61.9358108,119.399899 C61.9358108,122.933007 64.7878378,125.785034 68.3209459,125.785034 L30.0101351,125.785034 L2.34121622,125.785034 C1.17273649,125.785034 0.212837838,124.827264 0.212837838,123.656655 L0.212837838,108.758007 C0.212837838,99.3505743 7.83243243,91.7309797 17.2398649,91.7309797 L32.1385135,91.7309797 L40.652027,95.9877365 L47.0371622,93.8593581 L53.4222973,95.9877365 L61.9358108,91.7309797 L70.4918919,91.7309797 C66.4713851,97.0732095 64.085473,103.71375 64.085473,110.907669 L64.0641892,110.907669 L64.0641892,117.27152 L64.0641892,117.314088 L61.9358108,117.314088 L61.9358108,119.399899 Z" id="Shape" fill="#41E2CF"></path>
                            <path d="M61.9358108,81.6658784 L61.9358108,91.7309797 L53.4222973,95.9877365 L47.0371622,93.8593581 L40.652027,95.9877365 L32.1385135,91.7309797 L32.1385135,81.6658784 C36.5868243,84.009223 41.6544932,85.347973 47.0371622,85.347973 C52.4240878,85.347973 57.4875,84.0070946 61.9358108,81.6658784 Z" id="Shape" fill="#FFCE54"></path>
                            <path d="M47.0371622,12.9831081 C50.5702703,12.9831081 53.4222973,15.8351351 53.4222973,19.3682432 C53.4222973,22.9013514 50.5702703,25.7533784 47.0371622,25.7533784 C43.5040541,25.7533784 40.652027,22.9013514 40.652027,19.3682432 C40.652027,15.8351351 43.5040541,12.9831081 47.0371622,12.9831081 Z" id="Shape" fill="#FFCE54"></path>
                            <path d="M15.1114865,34.2668919 C15.1114865,16.6226351 29.3950338,2.34121622 47.0371622,2.34121622 C64.6622635,2.34121622 78.9628378,16.6226351 78.9628378,34.2668919 L78.9628378,39.9283784 C74.1122635,37.4594595 64.4472973,34.2668919 47.0371622,34.2668919 C29.627027,34.2668919 19.9876014,37.4381757 15.1114865,39.9283784 L15.1114865,34.2668919 Z M53.4222973,19.3682432 C53.4222973,15.8351351 50.5702703,12.9831081 47.0371622,12.9831081 C43.5040541,12.9831081 40.652027,15.8351351 40.652027,19.3682432 C40.652027,22.9013514 43.5040541,25.7533784 47.0371622,25.7533784 C50.5702703,25.7533784 53.4222973,22.9013514 53.4222973,19.3682432 Z" id="Shape" fill="#41E2CF"></path>
                            <path d="M47.0371622,2.34121622 C45.9602027,2.34121622 44.8917568,2.39655405 43.8403378,2.50297297 C59.9649324,4.10351351 72.5734459,17.701723 72.5734459,34.2668919 L72.5734459,37.4190203 C75.2786149,38.2427027 77.3835811,39.1238514 78.9628378,39.9283784 L78.9628378,34.2668919 C78.9628378,16.6226351 64.6622635,2.34121622 47.0371622,2.34121622 Z" id="Shape" fill="#1BA090"></path>
                            <path d="M78.9628378,42.7804054 L15.1114865,42.7804054 L10.8547297,42.7804054 C10.8547297,42.7804054 12.0061824,41.5033784 15.1114865,39.9283784 C19.9876014,37.4381757 29.627027,34.2668919 47.0371622,34.2668919 C64.4472973,34.2668919 74.1122635,37.4594595 78.9628378,39.9283784 C82.0511149,41.5033784 83.2195946,42.7804054 83.2195946,42.7804054 L78.9628378,42.7804054 Z" id="Shape" fill="#656D78"></path>
                            <path d="M78.9628378,42.7804054 L78.9628378,53.4222973 C78.9628378,65.6817568 72.0668919,76.3236486 61.9358108,81.6658784 C57.4875,84.009223 52.4240878,85.347973 47.0371622,85.347973 C41.6544932,85.347973 36.5868243,84.0070946 32.1385135,81.6658784 C22.0074324,76.3236486 15.1114865,65.6817568 15.1114865,53.4222973 L15.1114865,42.7804054 L78.9628378,42.7804054 Z" id="Shape" fill="#EAC6BB"></path>
                            <path d="M72.5734459,42.7804054 L72.5734459,53.4222973 C72.5734459,65.6817568 65.6775,76.3236486 55.5464189,81.6658784 C51.9877703,83.5388514 48.0353716,84.7562838 43.8403378,85.1755743 C44.8960135,85.2798649 45.9559459,85.347973 47.0371622,85.347973 C52.4240878,85.347973 57.4875,84.0070946 61.9358108,81.6658784 C72.0668919,76.3236486 78.9628378,65.6817568 78.9628378,53.4222973 L78.9628378,42.7804054 L72.5734459,42.7804054 Z" id="Shape" fill="#D3B1A9"></path>
                            <g id="Group" transform="translate(91.668919, 21.432432)" fill="#CCD1D9">
                                <path d="M21.347973,6.39398649 C20.1709797,6.39398649 19.2195946,5.44260135 19.2195946,4.26560811 L19.2195946,2.13722973 C19.2195946,0.960236486 20.1709797,0.00885135135 21.347973,0.00885135135 C22.5249662,0.00885135135 23.4763514,0.960236486 23.4763514,2.13722973 L23.4763514,4.26560811 C23.4763514,5.44047297 22.5249662,6.39398649 21.347973,6.39398649 Z" id="Shape"></path>
                                <path d="M21.347973,42.5679054 C20.1709797,42.5679054 19.2195946,41.6165203 19.2195946,40.439527 L19.2195946,38.3111486 C19.2195946,37.1341554 20.1709797,36.1827703 21.347973,36.1827703 C22.5249662,36.1827703 23.4763514,37.1341554 23.4763514,38.3111486 L23.4763514,40.439527 C23.4763514,41.6143919 22.5249662,42.5679054 21.347973,42.5679054 Z" id="Shape"></path>
                                <path d="M12.8387162,8.67135135 C12.1022973,8.67135135 11.3871622,8.29037162 10.9934122,7.60716216 L9.92922297,5.76611486 C9.34391892,4.74875 9.69297297,3.44618243 10.7103378,2.85875 C11.7213176,2.26918919 13.0260135,2.61824324 13.6155743,3.63773649 L14.6797635,5.47878378 C15.2693243,6.49614865 14.9202703,7.79871622 13.9029054,8.38614865 C13.5666216,8.57983108 13.2005405,8.67135135 12.8387162,8.67135135 Z" id="Shape"></path>
                                <path d="M30.9256757,40.0032095 C30.1892568,40.0032095 29.4741216,39.6201014 29.0803716,38.9368919 L28.0161824,37.0915878 C27.4308784,36.074223 27.7799324,34.7716554 28.7972973,34.1863514 C29.8167905,33.5989189 31.1214865,33.9501014 31.7025338,34.9674662 L32.766723,36.8127703 C33.3562838,37.8301351 33.002973,39.1327027 31.9856081,39.7180068 C31.6535811,39.9116892 31.2875,40.0032095 30.9256757,40.0032095 Z" id="Shape"></path>
                                <path d="M6.60256757,14.9032432 C6.24074324,14.9032432 5.87466216,14.811723 5.54263514,14.6180405 L3.70158784,13.5538514 C2.68209459,12.9664189 2.33304054,11.661723 2.92047297,10.6464865 C3.51003378,9.62699324 4.81260135,9.27793919 5.82996622,9.8675 L7.67101351,10.9316892 C8.69050676,11.5191216 9.03956081,12.8238176 8.44787162,13.8390541 C8.05412162,14.5222635 7.33898649,14.9032432 6.60256757,14.9032432 Z" id="Shape"></path>
                                <path d="M37.9344257,32.9944595 C37.5726014,32.9944595 37.2022635,32.9029392 36.8702365,32.7071284 L35.0249324,31.6386824 C34.0054392,31.0491216 33.6606419,29.7465541 34.2523311,28.7313176 C34.8376351,27.7118243 36.1444595,27.3627703 37.1575676,27.9565878 L39.0028716,29.0250338 C40.0223649,29.6145946 40.3671622,30.9171622 39.775473,31.9323986 C39.381723,32.6134797 38.6665878,32.9944595 37.9344257,32.9944595 Z" id="Shape"></path>
                                <path d="M4.3252027,23.4125 L2.19682432,23.4125 C1.01983108,23.4125 0.0684459459,22.4611149 0.0684459459,21.2841216 C0.0684459459,20.1071284 1.01983108,19.1557432 2.19682432,19.1557432 L4.3252027,19.1557432 C5.50219595,19.1557432 6.45358108,20.1071284 6.45358108,21.2841216 C6.45358108,22.4611149 5.50219595,23.4125 4.3252027,23.4125 Z" id="Shape"></path>
                                <path d="M40.5033784,23.4167568 C40.4991216,23.4167568 40.4991216,23.4167568 40.4991216,23.4167568 L38.3664865,23.4125 C37.1894932,23.4103716 36.2423649,22.4568581 36.2423649,21.2798649 C36.2466216,20.105 37.1980068,19.1557432 38.3707432,19.1557432 L38.375,19.1557432 L40.5076351,19.16 C41.6846284,19.1621284 42.6317568,20.1156419 42.6317568,21.2926351 C42.6275,22.4653716 41.6761149,23.4167568 40.5033784,23.4167568 Z" id="Shape"></path>
                                <path d="M4.76152027,32.9859459 C4.02510135,32.9859459 3.30996622,32.6028378 2.91621622,31.9175 C2.33091216,30.8980068 2.67996622,29.5975676 3.70158784,29.0122635 L5.54263514,27.9523311 C6.55787162,27.3691554 7.86256757,27.7182095 8.44787162,28.7377027 C9.03317568,29.7571959 8.68412162,31.0576351 7.6625,31.6429392 L5.8214527,32.7028716 C5.48942568,32.8944257 5.12334459,32.9859459 4.76152027,32.9859459 Z" id="Shape"></path>
                                <path d="M36.0933784,14.9032432 C35.3569595,14.9032432 34.6418243,14.5201351 34.2480743,13.8369257 C33.6627703,12.8195608 34.0118243,11.5169932 35.0291892,10.9316892 L36.8744932,9.8675 C37.8961149,9.27793919 39.1944257,9.63125 39.7797297,10.6486149 C40.3692905,11.6659797 40.0159797,12.9685473 38.9986149,13.5538514 L37.1533108,14.6180405 C36.8212838,14.811723 36.4552027,14.9032432 36.0933784,14.9032432 Z" id="Shape"></path>
                                <path d="M11.7660135,39.9989527 C11.4041892,39.9989527 11.0381081,39.9074324 10.7060811,39.71375 C9.68658784,39.1263176 9.33753378,37.8216216 9.92496622,36.8063851 L10.9891554,34.9653378 C11.5787162,33.9458446 12.8812838,33.5967905 13.8986486,34.1863514 C14.9160135,34.7759122 15.2671959,36.0784797 14.6755068,37.0937162 L13.6113176,38.9347635 C13.2175676,39.617973 12.5024324,39.9989527 11.7660135,39.9989527 Z" id="Shape"></path>
                                <path d="M29.8572297,8.67135135 C29.4954054,8.67135135 29.1293243,8.57983108 28.7972973,8.38614865 C27.7778041,7.79871622 27.42875,6.49402027 28.0161824,5.47878378 L29.0846284,3.63347973 C29.6699324,2.61398649 30.9767568,2.26493243 31.9898649,2.85449324 C33.0093581,3.44192568 33.3584122,4.74662162 32.7709797,5.76185811 L31.7025338,7.60716216 C31.3087838,8.29037162 30.5936486,8.67135135 29.8572297,8.67135135 Z" id="Shape"></path>
                            </g>
                            <path d="M113.016892,44.8534459 C111.839899,44.8534459 110.888514,43.9020608 110.888514,42.7250676 L110.888514,32.0831757 C110.888514,30.9061824 111.839899,29.9547973 113.016892,29.9547973 C114.193885,29.9547973 115.14527,30.9061824 115.14527,32.0831757 L115.14527,42.7250676 C115.14527,43.8999324 114.193885,44.8534459 113.016892,44.8534459 Z" id="Shape" fill="#656D78"></path>
                            <path d="M113.016892,64.0045946 C101.281014,64.0045946 91.7331081,54.4566892 91.7331081,42.7208108 C91.7331081,30.9849324 101.281014,21.437027 113.016892,21.437027 C124.75277,21.437027 134.300676,30.9849324 134.300676,42.7208108 C134.300676,54.4566892 124.75277,64.0045946 113.016892,64.0045946 Z M113.016892,25.6937838 C103.626486,25.6937838 95.9898649,33.3325338 95.9898649,42.7208108 C95.9898649,52.1090878 103.626486,59.7478378 113.016892,59.7478378 C122.403041,59.7478378 130.043919,52.1090878 130.043919,42.7208108 C130.043919,33.3325338 122.403041,25.6937838 113.016892,25.6937838 Z" id="Shape" fill="#FFCE54"></path>
                            <polygon id="Shape" fill="#F03575" points="130.043919 87.474223 130.043919 125.785034 106.631757 125.785034 61.9358108 125.785034 61.9358108 96.9075382 61.9358108 87.474223 127.915541 87.474223"></polygon>
                            <polygon id="Shape-Copy-2" fill="#D41E5C" points="130.043919 87.474223 130.043919 125.785034 127.117399 125.785034 121.530405 125.785034 121.530405 96.9075382 121.530405 87.474223 129.777872 87.474223"></polygon>
                            <polygon id="Shape-Copy" fill="#FF6398" transform="translate(95.989865, 82.153277) scale(1, -1) translate(-95.989865, -82.153277) " points="130.043919 76.8323311 130.043919 87.474223 106.631757 87.474223 61.9358108 87.474223 61.9358108 79.4526964 61.9358108 76.8323311 127.915541 76.8323311"></polygon>
                            <polygon id="Shape-Copy-3" fill="#D41E5C" transform="translate(125.787162, 82.153277) scale(1, -1) translate(-125.787162, -82.153277) " points="130.043919 76.8323311 130.043919 87.474223 127.117399 87.474223 121.530405 87.474223 121.530405 79.4526964 121.530405 76.8323311 129.777872 76.8323311"></polygon>
                        </g>
                    </g>
                </g>
            </g>
        </g>
    </g>
</svg>