<?xml version="1.0" encoding="UTF-8"?>
<svg width="45px" height="60px" viewBox="0 0 45 60" version="1.1" xmlns="http://www.w3.org/2000/svg" xmlns:xlink="http://www.w3.org/1999/xlink">
    <!-- Generator: Sketch 48.2 (47327) - http://www.bohemiancoding.com/sketch -->
    <title>sleeveless (1)</title>
    <desc>Created with Sketch.</desc>
    <defs></defs>
    <g id="Order-Request" stroke="none" stroke-width="1" fill="none" fill-rule="evenodd" transform="translate(-668.000000, -733.000000)">
        <g id="Group-23" transform="translate(263.000000, 242.000000)" fill-rule="nonzero">
            <g id="Group-21" transform="translate(0.000000, 165.000000)">
                <g id="Group-16" transform="translate(1.000000, 253.000000)">
                    <g id="Group-6" transform="translate(357.000000, 46.000000)">
                        <g id="sleeveless-(1)" transform="translate(47.000000, 27.000000)">
                            <path d="M36.2013281,11.0020312 L36.2013281,0.967617187 C36.2013281,0.433242187 35.7680859,0 35.2337109,0 L31.0517578,0 C30.5259375,0 30.0973828,0.420585938 30.0847266,0.94640625 C30.0166406,3.77460938 29.6430469,6.03667969 29.0766797,7.845 C26.9602734,14.6016797 17.3363672,14.6016797 15.2199609,7.845 C14.6535938,6.03667969 14.2798828,3.77449219 14.2119141,0.94640625 C14.1990234,0.420585938 13.7704688,0 13.2446484,0 L9.06257813,0 C8.52820313,0 8.09496094,0.433242187 8.09496094,0.967617187 L8.09496094,11.0020312 C8.09496094,11.0020312 8.32476563,20.1829688 0.740625,23.0280469 C0.362929688,23.1697266 0.111914063,23.5301953 0.111914063,23.9335547 L0.111914063,59.9994141 L19.9933594,59.9994141 L24.3029297,59.9994141 L44.1842578,59.9994141 L44.1842578,23.9335547 C44.1842578,23.5300781 43.9332422,23.1697266 43.5555469,23.0280469 C35.9715234,20.1829688 36.2013281,11.0020312 36.2013281,11.0020312 Z" id="Shape" fill="#6BECA7"></path>
                            <path d="M44.1848437,23.9336719 L44.1848437,60 L38.6958984,60 L38.6958984,26.3842969 C38.6958984,25.9803516 38.4454688,25.6198828 38.068125,25.4783203 C30.4842187,22.6334766 30.7128516,11.0025 30.7128516,11.0025 L30.7128516,0.96796875 C30.7128516,0.686132812 30.5919141,0.4321875 30.3996094,0.254296875 C30.5714063,0.095859375 30.8012109,0.000234375 31.0515234,0.000234375 L35.2341797,0.000234375 C35.7676172,0.000234375 36.2017969,0.433242187 36.2017969,0.967851562 L36.2017969,11.0022656 C36.2017969,11.0022656 35.9719922,20.1827344 43.5558984,23.0275781 C43.9332422,23.1692578 44.1848437,23.5297266 44.1848437,23.9336719 Z" id="Shape" fill="#5BD891"></path>
                        </g>
                    </g>
                </g>
            </g>
        </g>
    </g>
</svg>