<?xml version="1.0" encoding="UTF-8"?>
<svg width="54px" height="70px" viewBox="0 0 54 70" version="1.1" xmlns="http://www.w3.org/2000/svg" xmlns:xlink="http://www.w3.org/1999/xlink">
    <!-- Generator: Sketch 48.2 (47327) - http://www.bohemiancoding.com/sketch -->
    <title>location (2)</title>
    <desc>Created with Sketch.</desc>
    <defs></defs>
    <g id="Home" stroke="none" stroke-width="1" fill="none" fill-rule="evenodd" transform="translate(-934.000000, -2072.000000)">
        <g id="Group-14" transform="translate(0.000000, 1976.000000)" fill="#F03575" fill-rule="nonzero">
            <g id="Group-13" transform="translate(876.000000, 96.000000)">
                <g id="location-(2)" transform="translate(58.000000, 0.000000)">
                    <path d="M21.9407617,65.8980273 L14.355332,65.8980273 C13.2227539,65.8980273 12.3045508,66.8162305 12.3045508,67.9488086 C12.3045508,69.0813867 13.2227539,69.9995898 14.355332,69.9995898 L38.964707,69.9995898 C40.0972852,69.9995898 41.0154883,69.0813867 41.0154883,67.9488086 C41.0154883,66.8162305 40.0972852,65.8980273 38.964707,65.8980273 L31.3792773,65.8980273 C33.9333203,63.1517578 37.6349805,58.9492969 41.2557031,54.0438281 C49.1792383,43.3094922 53.1968555,34.0960156 53.1968555,26.6597461 C53.1968555,12.0316602 41.2969922,0.0720507813 26.67,2.84217094e-14 C26.6633008,2.84217094e-14 26.6564648,2.84217094e-14 26.6499023,2.84217094e-14 C12.0230469,0.0720507813 0.123183594,12.0316602 0.123183594,26.6597461 C0.123183594,34.0961523 4.14080078,43.3094922 12.0643359,54.0438281 C15.6850586,58.9492969 19.3867188,63.1518945 21.9407617,65.8980273 Z M26.6600195,4.1015625 C39.0323828,4.16746094 49.095293,14.2850586 49.095293,26.6597461 C49.095293,33.1083594 45.2433789,41.7353125 37.9558594,51.6080469 C33.4926758,57.6544336 28.9168359,62.5854688 26.6600195,64.9157031 C24.4032031,62.5854688 19.8273633,57.6545703 15.3641797,51.6080469 C8.07666016,41.7353125 4.22474609,33.1083594 4.22474609,26.6597461 C4.22474609,14.2850586 14.2876563,4.16746094 26.6600195,4.1015625 Z" id="Shape"></path>
                    <path d="M45.1170508,26.6597461 C45.1170508,36.8370898 36.8372266,45.1167773 26.6600195,45.1167773 C16.4828125,45.1167773 8.20298828,36.8369531 8.20298828,26.6597461 C8.20298828,16.4825391 16.4828125,8.20271484 26.6600195,8.20271484 C36.8372266,8.20271484 45.1170508,16.4825391 45.1170508,26.6597461 Z M41.083916,26.6597461 C41.083916,18.7064096 34.6133561,12.2358496 26.6600195,12.2358496 C18.706683,12.2358496 12.236123,18.7064096 12.236123,26.6597461 C12.236123,34.6130826 18.706683,41.0836426 26.6600195,41.0836426 C34.6133561,41.0836426 41.083916,34.6131895 41.083916,26.6597461 Z" id="Shape"></path>
                </g>
            </g>
        </g>
    </g>
</svg>