<?xml version="1.0" encoding="UTF-8"?>
<svg width="47px" height="50px" viewBox="0 0 47 50" version="1.1" xmlns="http://www.w3.org/2000/svg" xmlns:xlink="http://www.w3.org/1999/xlink">
    <!-- Generator: Sketch 48.2 (47327) - http://www.bohemiancoding.com/sketch -->
    <title>Group 7</title>
    <desc>Created with Sketch.</desc>
    <defs></defs>
    <g id="Account" stroke="none" stroke-width="1" fill="none" fill-rule="evenodd" transform="translate(-231.000000, -425.000000)">
        <g id="Group-5" transform="translate(198.000000, 387.000000)">
            <g id="Group-7" transform="translate(33.000000, 38.000000)">
                <g id="order-(1)">
                    <polygon id="Rectangle-4" fill="#FFFFFF" points="1 2 31 2 31.7206715 12.7987809 24.7165375 20.4392296 19.3952271 22.8999268 19.3952271 32 1 32"></polygon>
                    <rect id="Rectangle-5" fill="#979797" x="29" y="26" width="12" height="8"></rect>
                    <path d="M26.0363281,23.0467773 C26.378125,18.5901367 30.1303711,15.065332 34.7023438,15.0402344 L34.7023438,1.46484375 C34.7023438,0.655859375 34.0464844,0 33.2375,0 L1.49921875,0 C0.690234375,0 0.034375,0.655859375 0.034375,1.46484375 L0.034375,38.671875 C0.034375,39.4808594 0.690234375,40.1367188 1.49921875,40.1367188 L20.3178711,40.1367188 L20.3178711,27.3624023 C20.3178711,24.9827148 22.2538086,23.0467773 24.6334961,23.0467773 L26.0363281,23.0467773 Z M14.6828125,5.90820312 L27.7686523,5.90820312 C28.5776367,5.90820312 29.2334961,6.5640625 29.2334961,7.37304687 C29.2334961,8.18203125 28.5776367,8.83789062 27.7686523,8.83789062 L14.6828125,8.83789062 C13.8738281,8.83789062 13.2179688,8.18203125 13.2179688,7.37304687 C13.2179688,6.5640625 13.8738281,5.90820312 14.6828125,5.90820312 Z M9.88183594,24.630957 L7.06357422,27.6583008 C6.7859375,27.9564453 6.39726563,28.125 5.99150391,28.125 C5.97373047,28.125 5.95605469,28.124707 5.93818359,28.1240234 C5.51318359,28.1085938 5.11601563,27.9091797 4.84960938,27.5777344 L3.67773438,26.1196289 C3.17099609,25.4890625 3.27138672,24.5669922 3.90195313,24.0602539 C4.53251953,23.5535156 5.45449219,23.6538086 5.96142578,24.284375 L6.07285156,24.4229492 L7.73769531,22.6345703 C8.2890625,22.0424805 9.21601563,22.0092773 9.80791016,22.5605469 C10.4,23.1119141 10.4331055,24.0387695 9.88183594,24.630957 Z M9.88183594,15.7442383 L7.06357422,18.771582 C6.7859375,19.0697266 6.39726563,19.2382812 5.99150391,19.2382812 C5.97373047,19.2382812 5.95605469,19.2379883 5.93818359,19.2373047 C5.51318359,19.221875 5.11601563,19.0224609 4.84960938,18.6910156 L3.67773438,17.2329102 C3.17099609,16.6023438 3.27138672,15.6802734 3.90195313,15.1735352 C4.53251953,14.6666992 5.45449219,14.7671875 5.96142578,15.3976563 L6.07285156,15.5362305 L7.73769531,13.7478516 C8.2890625,13.1557617 9.21601563,13.1226563 9.80791016,13.6738281 C10.4,14.2251953 10.4331055,15.1520508 9.88183594,15.7442383 Z M9.88183594,6.85751953 L7.06357422,9.88486328 C6.7859375,10.1830078 6.39726563,10.3515625 5.99150391,10.3515625 C5.97373047,10.3515625 5.95605469,10.3512695 5.93818359,10.3505859 C5.51318359,10.3351563 5.11601563,10.1357422 4.84960938,9.80429688 L3.67773438,8.34619141 C3.17099609,7.715625 3.27138672,6.79355469 3.90195313,6.28681641 C4.53251953,5.77998047 5.45449219,5.88046875 5.96142578,6.5109375 L6.07285156,6.64951172 L7.73769531,4.86113281 C8.2890625,4.26904297 9.21601563,4.2359375 9.80791016,4.78710938 C10.4,5.33847656 10.4331055,6.26533203 9.88183594,6.85751953 Z M17.1239258,26.6113281 L14.6828125,26.6113281 C13.8738281,26.6113281 13.2179688,25.9554687 13.2179688,25.1464844 C13.2179688,24.3375 13.8738281,23.6816406 14.6828125,23.6816406 L17.1239258,23.6816406 C17.9329102,23.6816406 18.5887695,24.3375 18.5887695,25.1464844 C18.5887695,25.9554687 17.9329102,26.6113281 17.1239258,26.6113281 Z M22.8857422,17.7246094 L14.6828125,17.7246094 C13.8738281,17.7246094 13.2179688,17.06875 13.2179688,16.2597656 C13.2179688,15.4507813 13.8738281,14.7949219 14.6828125,14.7949219 L22.8857422,14.7949219 C23.6947266,14.7949219 24.3505859,15.4507813 24.3505859,16.2597656 C24.3505859,17.06875 23.6947266,17.7246094 22.8857422,17.7246094 Z" id="Shape" fill="#979797" fill-rule="nonzero"></path>
                    <path d="M44.86875,25.9764648 L40.5617188,25.9764648 L40.5617188,29.5605469 C40.5617188,30.3695313 39.9058594,31.0253906 39.096875,31.0253906 C38.2878906,31.0253906 37.6320313,30.3695313 37.6320313,29.5605469 L37.6320313,25.9764648 L31.8703125,25.9764648 L31.8703125,29.5605469 C31.8703125,30.3695313 31.2144531,31.0253906 30.4054688,31.0253906 C29.5964844,31.0253906 28.940625,30.3695313 28.940625,29.5605469 L28.940625,25.9764648 L24.6334961,25.9764648 C23.8680664,25.9764648 23.2475586,26.5969727 23.2475586,27.3624023 L23.2475586,44.5753906 C23.2475586,47.5665039 25.6848633,50 28.6805664,50 L40.8217773,50 C43.8175781,50 46.2547852,47.5665039 46.2547852,44.5753906 L46.2547852,27.3624023 C46.2546875,26.5969727 45.6341797,25.9764648 44.86875,25.9764648 Z" id="Shape" fill="#979797" fill-rule="nonzero"></path>
                    <path d="M31.8703125,23.7109375 C31.8703125,22.1601562 33.1625977,20.8984375 34.7511719,20.8984375 C36.3397461,20.8984375 37.6320312,22.1600586 37.6320312,23.7109375 L37.6320312,25.9764648 L40.5617187,25.9764648 L40.5617187,23.7109375 C40.5617187,20.5447266 37.9551758,17.96875 34.7511719,17.96875 C31.547168,17.96875 28.940625,20.5446289 28.940625,23.7109375 L28.940625,25.9764648 L31.8703125,25.9764648 L31.8703125,23.7109375 Z" id="Shape" fill="#979797" fill-rule="nonzero"></path>
                </g>
            </g>
        </g>
    </g>
</svg>