<?xml version="1.0" encoding="UTF-8"?>
<svg width="30px" height="60px" viewBox="0 0 30 60" version="1.1" xmlns="http://www.w3.org/2000/svg" xmlns:xlink="http://www.w3.org/1999/xlink">
    <!-- Generator: Sketch 48.2 (47327) - http://www.bohemiancoding.com/sketch -->
    <title>jeans</title>
    <desc>Created with Sketch.</desc>
    <defs></defs>
    <g id="Order-Request" stroke="none" stroke-width="1" fill="none" fill-rule="evenodd" transform="translate(-497.000000, -733.000000)">
        <g id="Group-23" transform="translate(263.000000, 242.000000)" fill-rule="nonzero">
            <g id="Group-21" transform="translate(0.000000, 165.000000)">
                <g id="Group-16" transform="translate(1.000000, 253.000000)">
                    <g id="Group-5" transform="translate(179.000000, 46.000000)">
                        <g id="jeans" transform="translate(54.000000, 27.000000)">
                            <path d="M28.9944141,5.19105469 L25.1401172,2.86898438 C24.9970312,2.78273437 24.8332031,2.73726563 24.6662109,2.73726563 L7.37953125,2.73726563 C7.26738281,2.73726563 7.15582031,2.75789062 7.05105469,2.79808594 L0.688125,5.23640625 C0.31734375,5.3784375 0.079921875,5.74265625 0.099609375,6.13945313 L2.72332031,59.1270703 C2.74757813,59.6160937 3.15105469,59.9998828 3.64054688,59.9998828 L11.3540625,59.9998828 C11.8386328,59.9998828 12.2398828,59.6232422 12.2704688,59.1394922 L14.7113672,20.5842187 L14.8202344,20.5842187 L17.2610156,59.1394922 C17.2916016,59.623125 17.6929687,59.9998828 18.1774219,59.9998828 L25.8909375,59.9998828 C26.3804297,59.9998828 26.7840234,59.6158594 26.8081641,59.1270703 L29.4377344,6.02320312 C29.4544922,5.68546875 29.2842187,5.36578125 28.9944141,5.19105469 Z" id="Shape" fill="#49BAED"></path>
                            <path d="M5.45695313,59.1271875 L2.96378906,8.77617188 L2.8003125,5.47464844 L2.8003125,4.42710938 L0.688007812,5.23652344 C0.317226563,5.37855469 0.0798046875,5.74277344 0.0994921875,6.13957031 L0.188671875,7.94039063 L0.230039063,8.77628906 L2.72320313,59.1271875 C2.74746094,59.6162109 3.1509375,60 3.64042969,60 L6.37417969,60 C5.8846875,60 5.48121094,59.6159766 5.45695313,59.1271875 Z" id="Shape" fill="#2CA4CE"></path>
                            <g id="Group" transform="translate(0.000000, 5.390625)" fill="#0D8AB0">
                                <path d="M29.1069141,7.31332031 C20.8259766,7.31332031 21.5901563,0.0840234375 21.5901563,0.0840234375 L29.4648047,0.0840234375 L29.1069141,7.31332031 Z" id="Shape"></path>
                                <path d="M0.424570312,7.31332031 C8.70527344,7.31332031 8.06355469,0.0840234375 8.06355469,0.0840234375 L0.0666796875,0.0840234375 L0.424570312,7.31332031 Z" id="Shape"></path>
                            </g>
                            <path d="M17.4967969,4.64296875 L15.5530078,4.64296875 C15.1183594,4.64296875 14.7658594,4.99546875 14.7658594,5.43011719 L14.7658594,15.1461328 C14.7658594,15.4201172 14.9082422,15.6741797 15.1417969,15.8173828 C15.2676563,15.8944922 15.4102734,15.9333984 15.553125,15.9333984 C15.6755859,15.9333984 15.7979297,15.9049219 15.9106641,15.8476172 L17.8544531,14.8569141 C18.118125,14.7226172 18.2841797,14.4515625 18.2841797,14.1555469 L18.2841797,5.43011719 C18.2840625,4.99535156 17.9314453,4.64296875 17.4967969,4.64296875 Z" id="Shape" fill="#60CEF4"></path>
                            <path d="M27.6649219,0 L1.86644531,0 C0.872460937,0 0.0665625,0.805898438 0.0665625,1.79988281 L0.0665625,2.43738281 L0.0665625,3.07488281 L0.0665625,5.47464844 L1.86644531,5.47464844 L27.6650391,5.47464844 L29.4648047,5.47464844 L29.4648047,3.075 L29.4648047,2.4375 L29.4648047,1.8 C29.4648047,0.805898438 28.6590234,0 27.6649219,0 Z" id="Shape" fill="#9BCBDD"></path>
                            <path d="M29.4648047,2.43738281 L29.4648047,1.79988281 C29.4648047,0.805898438 28.6590234,0 27.6649219,0 L13.7157422,0 L13.7157422,5.47476563 L27.6649219,5.47476563 L29.4648047,5.47476563 L29.4648047,3.075 L29.4648047,2.43738281 Z" id="Shape" fill="#B7DFF7"></path>
                            <rect id="Rectangle-path" fill="#9BCBDD" x="21.6558984" y="0" width="1.96792969" height="5.47476563"></rect>
                            <rect id="Rectangle-path" fill="#86B5C4" x="5.90695313" y="0" width="1.96792969" height="5.47476563"></rect>
                            <path d="M16.5154688,3.72105469 C16.2569531,3.72105469 16.0025391,3.61605469 15.8200781,3.43371094 C15.6365625,3.25019531 15.5314453,2.99695313 15.5314453,2.73703125 C15.5314453,2.47851562 15.6365625,2.22410156 15.8200781,2.04164062 C16.0037109,1.85800781 16.2569531,1.75300781 16.5154688,1.75300781 C16.7753906,1.75300781 17.0283984,1.85800781 17.2109766,2.04164062 C17.3944922,2.22398438 17.4994922,2.47851562 17.4994922,2.73703125 C17.4994922,2.99683594 17.3944922,3.24996094 17.2109766,3.43371094 C17.0285156,3.61617188 16.7753906,3.72105469 16.5154688,3.72105469 Z" id="Shape" fill="#FFB76D"></path>
                            <path d="M2.8003125,5.47476563 L2.8003125,3.075 L2.8003125,2.4375 L2.8003125,1.8 C2.8003125,0.805898438 3.60621094,0 4.60019531,0 L1.86644531,0 C0.872460937,0 0.0665625,0.805898438 0.0665625,1.79988281 L0.0665625,2.43738281 L0.0665625,3.07488281 L0.0665625,5.47464844 L1.86644531,5.47464844 L2.8003125,5.47464844 L2.8003125,5.47476563 Z" id="Shape" fill="#86B5C4"></path>
                            <path d="M0.284179688,9.87105469 L0.424453125,12.7038281 C1.46519531,12.7038281 2.36472656,12.5895703 3.14273438,12.3897656 L2.96378906,8.77605469 L2.8003125,5.47453125 L0.0665625,5.47453125 L0.230039063,8.77605469 L0.284179688,9.87105469 Z" id="Shape" fill="#097993"></path>
                        </g>
                    </g>
                </g>
            </g>
        </g>
    </g>
</svg>