<?xml version="1.0" encoding="UTF-8"?>
<svg width="189px" height="189px" viewBox="0 0 189 189" version="1.1" xmlns="http://www.w3.org/2000/svg" xmlns:xlink="http://www.w3.org/1999/xlink">
    <!-- Generator: Sketch 48.2 (47327) - http://www.bohemiancoding.com/sketch -->
    <title>Group 32</title>
    <desc>Created with Sketch.</desc>
    <defs></defs>
    <g id="Home" stroke="none" stroke-width="1" fill="none" fill-rule="evenodd" transform="translate(-866.000000, -1355.000000)">
        <g id="Group-10" transform="translate(187.000000, 1096.000000)">
            <g id="Group-8" transform="translate(0.000000, 228.000000)">
                <g id="Group-6" transform="translate(548.000000, 0.000000)">
                    <g id="Group-32" transform="translate(131.000000, 31.000000)">
                        <circle id="Oval-2" fill-opacity="0.269644475" fill="#FFFFFF" cx="94.5" cy="94.5" r="94.5"></circle>
                        <g id="package-(1)" transform="translate(31.000000, 31.000000)" fill-rule="nonzero">
                            <g id="Group" transform="translate(0.000000, 27.126761)">
                                <polygon id="Shape" fill="#41E2CF" points="8.39991549 59.9572394 71.3999155 59.9572394 71.3999155 83.1881408 8.39991549 83.1881408"></polygon>
                                <polygon id="Shape" fill="#18B9A6" transform="translate(39.899915, 64.480690) rotate(90.000000) translate(-39.899915, -64.480690) " points="35.3767183 32.9806901 44.4231127 32.9806901 44.4231127 95.9806901 35.3767183 95.9806901"></polygon>
                                <path d="M81.9,0.172647887 C83.0598592,0.172647887 83.9999155,1.11295775 83.9999155,2.27256338 L83.9999155,16.9724789 L85.2675211,16.9724789 L85.2675211,63.1723944 L2.09991549,63.1723944 C0.940056338,63.1723944 1.59872116e-14,62.232338 1.59872116e-14,61.0724789 L1.59872116e-14,2.2728169 C1.59872116e-14,1.11295775 0.940309859,0.172901408 2.09991549,0.172901408 L81.9,0.172901408 L81.9,0.172647887 Z" id="Shape" fill="#41E2CF"></path>
                                <g transform="translate(12.422535, 12.676056)" fill="#18B9A6" id="Shape">
                                    <path d="M0.177464789,33.6967606 C0.177464789,36.0164789 2.05783099,37.8968451 4.3775493,37.8968451 C6.69726761,37.8968451 8.5776338,36.0164789 8.5776338,33.6967606 L8.5776338,4.29667606 C8.5776338,1.97695775 6.69726761,0.0965915493 4.3775493,0.0965915493 C2.05783099,0.0965915493 0.177464789,1.97695775 0.177464789,4.29667606 L0.177464789,33.6967606 Z"></path>
                                    <path d="M50.5774648,33.6967606 C50.5774648,36.0164789 52.457831,37.8968451 54.7775493,37.8968451 C57.0972676,37.8968451 58.9776338,36.0164789 58.9776338,33.6967606 L58.9776338,4.29667606 C58.9776338,1.97695775 57.0972676,0.0965915493 54.7775493,0.0965915493 C52.457831,0.0965915493 50.5774648,1.97695775 50.5774648,4.29667606 L50.5774648,33.6967606 Z"></path>
                                    <path d="M25.3774648,33.6967606 C25.3774648,36.0164789 27.257831,37.8968451 29.5775493,37.8968451 C31.8972676,37.8968451 33.7776338,36.0164789 33.7776338,33.6967606 L33.7776338,4.29667606 C33.7776338,1.97721127 31.8972676,0.0965915493 29.5775493,0.0965915493 C27.257831,0.0965915493 25.3774648,1.97695775 25.3774648,4.29667606 L25.3774648,33.6967606 Z"></path>
                                </g>
                                <path d="M83.9999155,81.7473803 L83.9999155,16.9727324 L104.838338,16.9727324 C106.527042,16.9727324 108.051718,17.9842817 108.708085,19.5401408 L119.606704,50.1812113 C119.715718,50.4395493 119.771746,50.7171549 119.771746,50.9975493 L119.771746,81.7473803 L83.9999155,81.7473803 Z" id="Shape" fill="#FFC200"></path>
                                <path d="M99.4000563,25.3729014 L94.5,25.3729014 C93.3401408,25.3729014 92.4000845,26.3132113 92.4000845,27.4728169 L92.4000845,48.4727324 C92.4000845,49.6325915 93.3401408,50.5726479 94.5,50.5726479 L108.150085,50.5726479 C109.648648,50.5726479 110.664761,49.0482254 110.088507,47.6650141 L101.338479,26.6650986 C101.012451,25.8824789 100.247831,25.3729014 99.4000563,25.3729014 Z" id="Shape" fill="#9BE6FF"></path>
                                <path d="M100.8,60.8742254 L92.4000845,60.8742254 C91.3497465,60.8742254 90.4986761,60.0229014 90.4986761,58.9728169 C90.4986761,57.9227324 91.3497465,57.0714085 92.4000845,57.0714085 L100.8,57.0714085 C101.850338,57.0714085 102.701408,57.9227324 102.701408,58.9728169 C102.701408,60.0229014 101.850085,60.8742254 100.8,60.8742254 Z" id="Shape" fill="#41E2CF"></path>
                                <path d="M121.634873,50.1814648 L108.708085,19.5403944 C108.051718,17.9845352 106.527042,16.9729859 104.838338,16.9729859 L98.9903662,16.9729859 C100.67907,16.9729859 102.203746,17.9845352 102.860113,19.5403944 L115.786901,50.1814648 C115.895915,50.4398028 115.951944,50.7174085 115.951944,50.9978028 L115.951944,81.7476338 L121.799915,81.7476338 L121.799915,71.4691268 L119.771746,67.5169859 L121.799915,63.3767324 L121.799915,50.9978028 C121.799915,50.7171549 121.743887,50.4398028 121.634873,50.1814648 Z" id="Shape" fill="#FE9900"></path>
                                <path d="M121.799915,71.5728169 L111.228085,71.5728169 C110.108028,71.5728169 109.199915,70.6647042 109.199915,69.5446479 L109.199915,65.2010704 C109.199915,64.0810141 110.108028,63.1729014 111.228085,63.1729014 L121.799915,63.1729014 L121.799915,71.5728169 Z" id="Shape" fill="#9BE6FF"></path>
                                <path d="M81.9,0.172647887 L76.0690141,0.172647887 C77.2288732,0.172647887 78.1689296,1.11270423 78.1689296,2.27256338 L78.1689296,63.1726479 L83.9999155,63.1726479 L83.9999155,2.2728169 C83.9999155,1.11295775 83.0598592,0.172647887 81.9,0.172647887 Z" id="Shape" fill="#18B9A6"></path>
                                <path d="M2.09991549,88.3729014 C0.940056338,88.3729014 0,87.4328451 0,86.2729859 L0,82.0729014 C0,80.9130423 0.940309859,79.9729859 2.09991549,79.9729859 L118.867437,79.9729859 L118.867437,88.3729014 L2.09991549,88.3729014 Z" id="Shape" fill="#D7D7D7"></path>
                                <path d="M69.3717465,92.5727324 L48.2280845,92.5727324 C47.1080282,92.5727324 46.1999155,91.6646197 46.1999155,90.5445634 L46.1999155,82.0009014 C46.1999155,80.8808451 47.1080282,79.9727324 48.2280845,79.9727324 L69.3717465,79.9727324 C70.4918028,79.9727324 71.3999155,80.8808451 71.3999155,82.0009014 L71.3999155,90.5445634 C71.3999155,91.6648732 70.4920563,92.5727324 69.3717465,92.5727324 Z" id="Shape" fill="#FFC200"></path>
                                <path d="M69.3717465,79.9727324 L63.5407606,79.9727324 C64.6608169,79.9727324 65.5689296,80.8808451 65.5689296,82.0009014 L65.5689296,90.5445634 C65.5689296,91.6646197 64.6608169,92.5727324 63.5407606,92.5727324 L69.3717465,92.5727324 C70.4918028,92.5727324 71.3999155,91.6646197 71.3999155,90.5445634 L71.3999155,82.0009014 C71.3999155,80.8808451 70.4920563,79.9727324 69.3717465,79.9727324 Z" id="Shape" fill="#FE9900"></path>
                                <path d="M119.628254,92.5727324 L123.971831,92.5727324 C125.091887,92.5727324 126,91.6646197 126,90.5445634 L126,82.0009014 C126,80.8808451 125.091887,79.9727324 123.971831,79.9727324 L117.600085,79.9727324 L117.600085,90.5445634 C117.600085,91.6648732 118.507944,92.5727324 119.628254,92.5727324 Z" id="Shape" fill="#D1CBC9"></path>
                                <g transform="translate(79.605634, 73.521127)">
                                    <g id="Oval">
                                        <circle fill="#15226E" cx="12.7944507" cy="12.7516056" r="12.6"></circle>
                                        <circle fill="#F3EDEA" transform="translate(12.836649, 12.677520) rotate(-83.457440) translate(-12.836649, -12.677520) " cx="12.8366493" cy="12.6775202" r="4.20225119"></circle>
                                    </g>
                                    <path d="M12.7944507,0.151605634 C11.790507,0.151605634 10.8152113,0.272535211 9.87895775,0.494366197 C15.4313239,1.81039437 19.5634648,6.79690141 19.5634648,12.7516056 C19.5634648,18.7063099 15.4313239,23.6928169 9.87895775,25.0088451 C10.8152113,25.2306761 11.790507,25.3516056 12.7944507,25.3516056 C19.7533521,25.3516056 25.3944507,19.710507 25.3944507,12.7516056 C25.3944507,5.79295775 19.7530986,0.151605634 12.7944507,0.151605634 Z" id="Shape" fill="#050C39"></path>
                                    <path d="M12.7944507,8.55177465 C11.6609577,8.55177465 10.6344507,9.00278873 9.87895775,9.73242254 C10.6696901,10.4962817 11.1635493,11.5653803 11.1635493,12.7516056 C11.1635493,13.937831 10.6699437,15.0071831 9.87895775,15.7707887 C10.6344507,16.5004225 11.6609577,16.9516901 12.7944507,16.9516901 C15.114169,16.9516901 16.9945352,15.0713239 16.9945352,12.7516056 C16.9945352,10.4318873 15.1139155,8.55177465 12.7944507,8.55177465 Z" id="Shape" fill="#E3DCDA"></path>
                                </g>
                                <g transform="translate(12.422535, 73.521127)">
                                    <g id="Oval">
                                        <circle fill="#15226E" cx="12.7774648" cy="12.7516056" r="12.6"></circle>
                                        <circle fill="#F3EDEA" transform="translate(12.780133, 12.707792) rotate(-80.735476) translate(-12.780133, -12.707792) " cx="12.7801334" cy="12.7077916" r="4.20027351"></circle>
                                    </g>
                                    <path d="M12.7774648,0.151605634 C11.7735211,0.151605634 10.7982254,0.272535211 9.86197183,0.494366197 C15.414338,1.81039437 19.5464789,6.79690141 19.5464789,12.7516056 C19.5464789,18.7063099 15.414338,23.6928169 9.86197183,25.0088451 C10.7982254,25.2306761 11.7735211,25.3516056 12.7774648,25.3516056 C19.7363662,25.3516056 25.3774648,19.710507 25.3774648,12.7516056 C25.3774648,5.79295775 19.7363662,0.151605634 12.7774648,0.151605634 Z" id="Shape" fill="#050C39"></path>
                                    <path d="M12.7774648,8.55177465 C11.6439718,8.55177465 10.6174648,9.00278873 9.86197183,9.73242254 C10.6527042,10.4962817 11.1465634,11.5653803 11.1465634,12.7516056 C11.1465634,13.937831 10.6529577,15.0071831 9.86197183,15.7707887 C10.6174648,16.5004225 11.6439718,16.9516901 12.7774648,16.9516901 C15.0969296,16.9516901 16.9775493,15.0713239 16.9775493,12.7516056 C16.9775493,10.4318873 15.0969296,8.55177465 12.7774648,8.55177465 Z" id="Shape" fill="#E3DCDA"></path>
                                </g>
                            </g>
                            <path d="M50.4,21.0004225 C50.4,9.02966197 40.3841408,-0.601605634 28.2754648,0.0296619718 C17.5662254,0.588169014 8.92876056,9.27659155 8.424,19.9886197 C8.22321127,24.2503099 9.29890141,28.2455493 11.2938592,31.6348732 L25.7628169,56.6992394 C27.3792676,59.4996338 31.4211549,59.4996338 33.0376056,56.6992394 L47.5065634,31.6348732 C49.3425634,28.5152958 50.4,24.8820845 50.4,21.0004225 Z" id="Shape" fill="#F03575"></path>
                            <circle id="Oval" fill="#F3EDEA" transform="translate(29.392952, 20.999198) rotate(-80.792031) translate(-29.392952, -20.999198) " cx="29.3929517" cy="20.9991983" r="8.39894525"></circle>
                            <path d="M29.4000845,12.600507 C28.3355493,12.600507 27.3184225,12.8005352 26.3814085,13.1618028 C29.5286197,14.3746479 31.7626479,17.4257746 31.7626479,21.0006761 C31.7626479,24.5755775 29.5286197,27.6267042 26.3814085,28.8395493 C27.3186761,29.2008169 28.3358028,29.4008451 29.4000845,29.4008451 C34.0392676,29.4008451 37.8,25.6401127 37.8,21.0009296 C37.8,16.3617465 34.0392676,12.600507 29.4000845,12.600507 Z" id="Shape" fill="#E3DCDA"></path>
                            <path d="M28.2754648,0.029915493 C27.635831,0.0633802817 27.0040563,0.127521127 26.3803944,0.217521127 C36.5483662,1.68109859 44.3626479,10.4275775 44.3626479,21.0004225 C44.3626479,24.8820845 43.3052113,28.5152958 41.4689577,31.6348732 L27,56.6992394 C26.8215211,57.0082817 26.6123662,57.2813239 26.3814085,57.522169 C28.2432676,59.4633803 31.5993803,59.1905915 33.0376056,56.6992394 L47.5065634,31.6348732 C49.3428169,28.5152958 50.4002535,24.882338 50.4002535,21.0004225 C50.4,9.02991549 40.3841408,-0.601352113 28.2754648,0.029915493 Z" id="Shape" fill="#E50048"></path>
                            <polygon id="Shape" fill="#55CBFC" points="115.952197 90.299662 121.800169 90.299662 121.800169 98.6995775 115.952197 98.6995775"></polygon>
                        </g>
                    </g>
                </g>
            </g>
        </g>
    </g>
</svg>