<?xml version="1.0" encoding="UTF-8"?>
<svg width="219px" height="170px" viewBox="0 0 219 170" version="1.1" xmlns="http://www.w3.org/2000/svg" xmlns:xlink="http://www.w3.org/1999/xlink">
    <!-- Generator: Sketch 48.2 (47327) - http://www.bohemiancoding.com/sketch -->
    <title>Group 18</title>
    <desc>Created with Sketch.</desc>
    <defs></defs>
    <g id="Home" stroke="none" stroke-width="1" fill="none" fill-rule="evenodd" transform="translate(-1400.000000, -3518.000000)">
        <g id="Group-23" transform="translate(0.000000, 3146.000000)">
            <g id="Group-22" transform="translate(187.000000, 89.000000)">
                <g id="Group-21" transform="translate(1097.000000, 224.000000)">
                    <g id="Group-18" transform="translate(116.000000, 59.000000)">
                        <path d="M108.330247,170 C168.159391,170 218.406607,146.446871 218.406607,99.2133371 C218.406607,68.9500082 166.132759,67.3062881 149.869865,52.3459399 C130.002103,34.0694493 118.839167,0 75.722769,0 C24.6537661,0 0,37.2425864 0,84.4761207 C0,131.709655 48.5011037,170 108.330247,170 Z" id="Oval-3-Copy-2" fill="#41E2CF"></path>
                        <g id="crown" transform="translate(44.000000, 25.000000)" fill="#15226E" fill-rule="nonzero">
                            <path d="M93.1968951,97.5609756 L37.5369916,97.5609756 C35.5530204,97.5609756 33.8625683,96.1346245 33.5201294,94.1930515 L27.3779721,58.9410279 C27.1225018,57.476713 27.6823622,56.0015514 28.8401317,55.0741521 C29.9924656,54.1413293 31.5579004,53.9243937 32.9385269,54.4775793 L49.5984492,61.2676614 L61.8284084,39.9483222 C63.2851325,37.4155999 67.4487542,37.4155999 68.9054782,39.9483222 L81.1354375,61.2676614 L97.7953598,54.4775793 C99.1759863,53.9243937 100.735986,54.1413293 101.893755,55.0741521 C103.046089,56.0015514 103.605949,57.476713 103.355915,58.9410279 L97.2137572,94.1930515 C96.8713184,96.1346245 95.1754307,97.5609756 93.1968951,97.5609756 Z M40.9668157,89.4258932 L89.7670709,89.4258932 L94.0611455,64.7874404 L80.9125804,70.1403246 C79.0155779,70.9158691 76.8467984,70.1620182 75.8303529,68.399417 L65.3669433,50.1605623 L54.9035337,68.399417 C53.8870882,70.1620182 51.7237443,70.9158691 49.8213062,70.1403246 L36.6727411,64.7874404 L40.9668157,89.4258932 Z" id="Shape"></path>
                            <path d="M115.752033,120 L14.9796748,120 C6.71634146,120 0,113.274545 0,105 L0,15 C0,6.72545455 6.71634146,0 14.9796748,0 L115.752033,0 C124.015366,0 130.731707,6.72545455 130.731707,15 L130.731707,105 C130.731707,113.274545 124.015366,120 115.752033,120 Z M14.9796748,8.18181818 C11.2265854,8.18181818 8.17073171,11.2418182 8.17073171,15 L8.17073171,105 C8.17073171,108.758182 11.2265854,111.818182 14.9796748,111.818182 L115.752033,111.818182 C119.505122,111.818182 122.560976,108.758182 122.560976,105 L122.560976,15 C122.560976,11.2418182 119.505122,8.18181818 115.752033,8.18181818 L14.9796748,8.18181818 Z" id="Shape"></path>
                            <path d="M126.646341,27.3170732 L4.08536585,27.3170732 C1.8302439,27.3170732 0,25.5687805 0,23.4146341 C0,21.2604878 1.8302439,19.5121951 4.08536585,19.5121951 L126.646341,19.5121951 C128.901463,19.5121951 130.731707,21.2604878 130.731707,23.4146341 C130.731707,25.5687805 128.901463,27.3170732 126.646341,27.3170732 Z" id="Shape"></path>
                        </g>
                    </g>
                </g>
            </g>
        </g>
    </g>
</svg>