<?xml version="1.0" encoding="UTF-8"?>
<svg width="52px" height="60px" viewBox="0 0 52 60" version="1.1" xmlns="http://www.w3.org/2000/svg" xmlns:xlink="http://www.w3.org/1999/xlink">
    <!-- Generator: Sketch 48.2 (47327) - http://www.bohemiancoding.com/sketch -->
    <title>saree</title>
    <desc>Created with Sketch.</desc>
    <defs></defs>
    <g id="Order-Request" stroke="none" stroke-width="1" fill="none" fill-rule="evenodd" transform="translate(-307.000000, -911.000000)">
        <g id="Group-23" transform="translate(263.000000, 242.000000)" fill-rule="nonzero">
            <g id="Group-21" transform="translate(0.000000, 165.000000)">
                <g id="Group-16" transform="translate(1.000000, 253.000000)">
                    <g id="Group-9" transform="translate(0.000000, 224.000000)">
                        <g id="saree" transform="translate(43.000000, 27.000000)">
                            <path d="M51.4086533,58.442235 C34.38,60.3221777 17.1961032,60.3221777 0.167277937,58.442235 C2.31318052,39.0048138 4.45908309,19.5673926 6.60498567,0.129971347 C19.3548997,1.53765043 32.2210315,1.53765043 44.9709456,0.129971347 C47.1168481,19.5675645 49.2627507,39.0048138 51.4086533,58.442235 Z" id="Shape" fill="#DE4726"></path>
                            <path d="M51.4086533,58.4422452 C49.2627507,39.0046486 47.1168481,19.5675679 44.9709456,0.129971347 C38.5729513,0.836217889 32.1455587,1.18779388 25.7183381,1.18521508 L25.7183381,59.8519981 C34.2947278,59.8545663 42.8711175,59.3847095 51.4086533,58.4422452 Z" id="Shape" fill="#C42F12"></path>
                            <g id="Group" transform="translate(2.063037, 32.836676)">
                                <path d="M8.02057307,0.13495702 L0.168481375,8.05787966 L8.02057307,15.9808023 L15.8726648,8.05787966 L8.02057307,0.13495702 Z M4.89575931,8.06063037 L8.02074499,4.90418338 L11.1457307,8.05581662 L8.02074499,11.2124355 L4.89575931,8.06063037 Z" id="Shape" fill="#FF8257"></path>
                                <path d="M23.7249284,0.13495702 L15.8728367,8.05787966 L23.7249284,15.9808023 L31.5770201,8.05787966 L23.7249284,0.13495702 Z M20.5999427,8.06063037 L23.7249284,4.90401146 L26.849914,8.0556447 L23.7249284,11.2120917 L20.5999427,8.06063037 Z" id="Shape" fill="#FF8257"></path>
                                <polygon id="Shape" fill="#FF7045" points="31.5770201 8.05787966 23.7249284 0.13495702 23.6553009 0.205100287 23.6553009 4.97432665 23.7249284 4.90401146 26.849914 8.05547278 23.7249284 11.2120917 23.6553009 11.1419484 23.6553009 15.910659 23.7249284 15.9808023"></polygon>
                                <path d="M39.4292837,0.13495702 L31.577192,8.05787966 L39.4292837,15.9808023 L47.2813754,8.05787966 L39.4292837,0.13495702 Z M36.304298,8.06063037 L39.4292837,4.90418338 L42.5542693,8.05581662 L39.4292837,11.2124355 L36.304298,8.06063037 Z" id="Shape" fill="#FF7045"></path>
                            </g>
                            <path d="M3.21816619,30.8087106 L48.357937,30.8087106 C48.2018338,29.3951862 48.0459026,27.98149 47.8897994,26.5679656 L3.68630372,26.5679656 C3.53020057,27.98149 3.37409742,29.3950143 3.21816619,30.8087106 Z" id="Shape" fill="#FF8257"></path>
                            <path d="M47.8896275,26.5679656 L25.7183381,26.5679656 L25.7183381,30.8087106 L48.357765,30.8087106 C48.2018338,29.3950143 48.0457307,27.98149 47.8896275,26.5679656 Z" id="Shape" fill="#FF7045"></path>
                            <path d="M4.02154728,23.530659 L47.554384,23.530659 C47.3982808,22.1171347 47.2421777,20.7036103 47.0862464,19.289914 L4.48968481,19.289914 C4.33375358,20.7036103 4.17765043,22.1171347 4.02154728,23.530659 Z" id="Shape" fill="#FF8257"></path>
                            <path d="M47.0862464,19.290086 L25.7183381,19.290086 L25.7183381,23.5308309 L47.554384,23.5308309 C47.3982808,22.1171347 47.2421777,20.7036103 47.0862464,19.290086 Z" id="Shape" fill="#FF7045"></path>
                            <path d="M0.412951289,56.217765 L51.1631519,56.217765 C51.0070487,54.8042407 50.8509456,53.3907163 50.6950143,51.9770201 L0.881260745,51.9770201 C0.724985673,53.3907163 0.568882521,54.8042407 0.412951289,56.217765 Z" id="Shape" fill="#FF8257"></path>
                            <path d="M50.6948424,51.9770201 L25.7183381,51.9770201 L25.7183381,56.217765 L51.1629799,56.217765 C51.0070487,54.8042407 50.8509456,53.3907163 50.6948424,51.9770201 Z" id="Shape" fill="#FF7045"></path>
                        </g>
                    </g>
                </g>
            </g>
        </g>
    </g>
</svg>