<?xml version="1.0" encoding="UTF-8"?>
<svg width="60px" height="60px" viewBox="0 0 60 60" version="1.1" xmlns="http://www.w3.org/2000/svg" xmlns:xlink="http://www.w3.org/1999/xlink">
    <!-- Generator: Sketch 48.2 (47327) - http://www.bohemiancoding.com/sketch -->
    <title>cloth</title>
    <desc>Created with Sketch.</desc>
    <defs></defs>
    <g id="Order-Request" stroke="none" stroke-width="1" fill="none" fill-rule="evenodd" transform="translate(-1017.000000, -733.000000)">
        <g id="Group-23" transform="translate(263.000000, 242.000000)" fill-rule="nonzero">
            <g id="Group-21" transform="translate(0.000000, 165.000000)">
                <g id="Group-16" transform="translate(1.000000, 253.000000)">
                    <g id="Group-8" transform="translate(714.000000, 46.000000)">
                        <g id="cloth" transform="translate(39.000000, 27.000000)">
                            <path d="M47.5862069,8.27586207 L47.5862069,45.5172414 C47.5866871,49.358455 46.0609837,53.0424803 43.3448355,55.7586286 C40.6286872,58.4747768 36.9446619,60.0004802 33.1034483,60 L30,50.6896552 L26.8965517,60 C19.0947462,60.0005959 12.6950925,53.8199438 12.4241379,46.0228448 C12.4163793,45.8547414 12.4137931,45.6866379 12.4137931,45.5172414 L12.4137931,8.27586207 L20.6896552,5.17241379 L22.7586207,5.68434189e-14 L37.2413793,5.68434189e-14 L39.3103448,5.17241379 L47.199569,8.13103448 L47.5862069,8.27586207 Z" id="Shape" fill="#3086CD"></path>
                            <path d="M47.5862069,8.27586207 L47.5862069,45.5172414 C47.5866871,49.358455 46.0609837,53.0424803 43.3448355,55.7586286 C40.6286872,58.4747768 36.9446619,60.0004802 33.1034483,60 L30,50.6896552 L26.8965517,60 C19.0947462,60.0005959 12.6950925,53.8199438 12.4241379,46.0228448 C25.5581897,40.2064655 38.6301724,28.6267241 47.199569,8.13103448 L47.5862069,8.27586207 Z" id="Shape" fill="#2D7DBF"></path>
                            <polygon id="Shape" fill="#3086CD" points="37.2413793 0 30 10.3448276 22.7586207 0"></polygon>
                            <polygon id="Shape" fill="#2D7DBF" points="33.6206897 5.17241379 30 10.3448276 26.3793103 5.17241379"></polygon>
                            <polygon id="Shape" fill="#348FD9" points="20.6896552 5.17241379 22.7586207 0 30 10.3448276 24.8275862 14.4827586"></polygon>
                            <polygon id="Shape" fill="#348FD9" points="39.3103448 5.17241379 37.2413793 0 30 10.3448276 35.1724138 14.4827586"></polygon>
                            <path d="M12.4137931,8.27586207 L6.8237069,11.0709052 C6.4233339,11.2711014 6.09868761,11.5957477 5.89849138,11.9961207 L0.218405172,23.3562931 C0.0747502401,23.6435559 -2.66826941e-05,23.9603285 -5.62221336e-16,24.2815086 L-5.62221336e-16,40.8909052 C-2.66826941e-05,41.2120853 0.0747502401,41.5288579 0.218405172,41.8161207 L9.31034483,60 L15.5172414,55.862069 L12.4137931,42.4137931 L12.4137931,8.27586207 Z" id="Shape" fill="#2D7DBF"></path>
                            <path d="M47.5862069,8.27586207 L53.7193966,10.9043534 C54.4043235,11.1978644 54.8785026,11.8370183 54.9607759,12.5776293 L60,57.9310345 L52.7586207,60 L47.5862069,35.1724138 L47.5862069,8.27586207 Z" id="Shape" fill="#2D7DBF"></path>
                            <g id="Group" transform="translate(7.112069, 10.344828)" fill="#2A71AD">
                                <path d="M5.30172414,33.1034483 C4.84767609,33.1032354 4.44683851,32.8069732 4.31340517,32.3729741 L0.175474138,18.9246983 C0.0643381983,18.5707474 0.151246731,18.1843852 0.403244536,17.9121179 C0.65524234,17.6398505 1.033741,17.5233703 1.39521607,17.6068459 C1.75669113,17.6903215 2.04578994,17.9609703 2.15288793,18.3161638 L6.29081897,31.7644397 C6.38714371,32.0782901 6.3288955,32.4192263 6.13383468,32.6832941 C5.93877387,32.9473619 5.63002354,33.1032579 5.30172414,33.1034483 Z" id="Shape"></path>
                                <path d="M2.19931034,44.4827586 C1.73404499,44.4833289 1.32564154,44.1732204 1.20122961,43.724897 C1.07681769,43.2765737 1.26701063,42.8003518 1.66603448,42.5610776 L6.83844828,39.4576293 C7.32836293,39.1636806 7.96380978,39.3225423 8.25775857,39.8124569 C8.55170735,40.3023716 8.39284566,40.9378184 7.90293103,41.2317672 L2.73051724,44.3352155 C2.57014292,44.4317481 2.38649597,44.4827561 2.19931034,44.4827586 Z" id="Shape"></path>
                                <path d="M47.7147414,45.5172414 C47.1920739,45.5173179 46.7514567,45.1275145 46.6878067,44.6087371 C46.6241567,44.0899598 46.9574717,43.6052008 47.4646552,43.4789224 L51.6025862,42.4444397 C51.9621968,42.3518087 52.3438679,42.4590347 52.6026258,42.725389 C52.8613838,42.9917433 52.9575246,43.3763562 52.8545303,43.7331369 C52.7515361,44.0899176 52.4652102,44.3641213 52.1043103,44.4515948 L47.9663793,45.4860776 C47.8840936,45.5067358 47.7995807,45.5172022 47.7147414,45.5172414 Z" id="Shape"></path>
                                <rect id="Rectangle-path" x="21.8534483" y="0" width="2.06896552" height="41.3793103" rx="1.03448276"></rect>
                            </g>
                            <polygon id="Shape" fill="#348FD9" points="43.4482759 30 39.3103448 32.0689655 35.1724138 30 35.1724138 22.7586207 43.4482759 22.7586207"></polygon>
                            <polygon id="Shape" fill="#395A8D" points="24.8275862 17.5862069 26.8965517 17.5862069 26.8965517 19.6551724 24.8275862 19.6551724"></polygon>
                            <polygon id="Shape" fill="#395A8D" points="24.8275862 27.9310345 26.8965517 27.9310345 26.8965517 30 24.8275862 30"></polygon>
                            <polygon id="Shape" fill="#395A8D" points="24.8275862 38.2758621 26.8965517 38.2758621 26.8965517 40.3448276 24.8275862 40.3448276"></polygon>
                            <polygon id="Shape" fill="#395A8D" points="24.8275862 48.6206897 26.8965517 48.6206897 26.8965517 50.6896552 24.8275862 50.6896552"></polygon>
                        </g>
                    </g>
                </g>
            </g>
        </g>
    </g>
</svg>