<?xml version="1.0" encoding="UTF-8"?>
<svg width="55px" height="60px" viewBox="0 0 55 60" version="1.1" xmlns="http://www.w3.org/2000/svg" xmlns:xlink="http://www.w3.org/1999/xlink">
    <!-- Generator: Sketch 48.2 (47327) - http://www.bohemiancoding.com/sketch -->
    <title>shirt (1)</title>
    <desc>Created with Sketch.</desc>
    <defs></defs>
    <g id="Order-Request" stroke="none" stroke-width="1" fill="none" fill-rule="evenodd" transform="translate(-306.000000, -733.000000)">
        <g id="Group-23" transform="translate(263.000000, 242.000000)" fill-rule="nonzero">
            <g id="Group-21" transform="translate(0.000000, 165.000000)">
                <g id="Group-16" transform="translate(1.000000, 253.000000)">
                    <g id="Group-11" transform="translate(0.000000, 46.000000)">
                        <g id="Group-4" transform="translate(31.000000, 27.000000)">
                            <g id="shirt-(1)" transform="translate(11.000000, 0.000000)">
                                <path d="M49.4697076,5.26666667 C45.4550877,2.11040936 36.8643275,0.124210526 36.5,0.041871345 C35.8281871,-0.111111111 35.1595322,0.309473684 35.0066667,0.98128655 C34.9860819,1.07169591 34.9756725,1.16421053 34.9755556,1.25695906 C34.9755556,2.94116959 31.5197661,4.99964912 27.4901754,4.99964912 C23.4605848,4.99964912 20.0047953,2.94116959 20.0047953,1.25695906 C20.0050292,0.877309942 19.8323977,0.518245614 19.5356725,0.281403509 C19.2423392,0.0375438596 18.8516959,-0.0548538012 18.4802339,0.0319298246 C18.1159064,0.114269006 9.5277193,2.10292398 5.50561404,5.25672515 C1.35122807,8.53532164 0.168538012,24.3345029 0.0437426901,26.1235088 C0.00959064327,26.6319298 0.288187135,27.1100585 0.747368421,27.3311111 C3.67859649,28.688538 6.81239766,29.5566082 10.0242105,29.9010526 L10.0242105,56.1498246 C10.0250292,56.6111111 10.2802339,57.034269 10.6879532,57.2501754 C10.8900585,57.36 15.7879532,59.8925146 27.4901754,59.8925146 C39.1923977,59.8925146 44.0902924,57.36 44.2923977,57.2501754 C44.7,57.034269 44.9553216,56.6111111 44.9561404,56.1498246 L44.9561404,29.9010526 C48.1671345,29.5563743 51.3,28.6881871 54.2305263,27.3311111 C54.6906433,27.1107602 54.9702924,26.6325146 54.9366082,26.1235088 C54.8118129,24.3345029 53.6291228,8.53532164 49.4697076,5.26666667 Z" id="Shape" fill="#03A9F4"></path>
                                <g id="Group" transform="translate(7.485380, 12.397661)" fill="#0288D1">
                                    <path d="M3.78643275,17.5533333 C3.0974269,17.5533333 2.53883041,16.9947368 2.53883041,16.305731 L2.53883041,8.82035088 C2.64081871,6.43567251 1.88491228,4.09333333 0.407953216,2.21824561 C-0.0706432749,1.72269006 -0.0569590643,0.932865497 0.438596491,0.454152047 C0.922105263,-0.012748538 1.68853801,-0.012748538 2.17192982,0.454152047 C4.13859649,2.78678363 5.15964912,5.77181287 5.03380117,8.82035088 L5.03380117,16.305731 C5.03403509,16.9947368 4.4754386,17.5533333 3.78643275,17.5533333 Z" id="Shape"></path>
                                    <path d="M36.2230409,17.5533333 C35.5340351,17.5533333 34.9754386,16.9947368 34.9754386,16.305731 L34.9754386,8.82035088 C34.8483041,5.77134503 35.868538,2.78538012 37.8348538,0.451695906 C38.3135673,-0.0438596491 39.1032749,-0.0576608187 39.5989474,0.421052632 C40.0945029,0.899766082 40.1081871,1.68947368 39.6295906,2.1851462 C39.6195322,2.19555556 39.6093567,2.20573099 39.5989474,2.21578947 C38.1223392,4.09192982 37.3672515,6.43520468 37.4706433,8.82035088 L37.4706433,16.305731 C37.4706433,16.9947368 36.9120468,17.5533333 36.2230409,17.5533333 Z" id="Shape"></path>
                                </g>
                                <path d="M37.0164912,0.296374269 C36.731462,0.0573099415 36.3535673,-0.0398830409 35.988538,0.0319298246 C33.1812865,0.601169591 30.3438596,1.01017544 27.4901754,1.25707602 C24.6363743,1.0102924 21.7990643,0.60128655 18.9918129,0.0319298246 C18.6267836,-0.0395321637 18.2490058,0.0576608187 17.9638596,0.296374269 C17.6768421,0.532865497 17.5104094,0.885146199 17.5097076,1.25695906 C17.5097076,4.99964912 22.6695906,7.49473684 27.4901754,7.49473684 C32.3107602,7.49473684 37.4706433,4.99964912 37.4706433,1.25695906 C37.4700585,0.885146199 37.3035088,0.532865497 37.0164912,0.296374269 Z" id="Shape" fill="#1976D2"></path>
                            </g>
                        </g>
                    </g>
                </g>
            </g>
        </g>
    </g>
</svg>