<?xml version="1.0" encoding="UTF-8"?>
<svg width="39px" height="60px" viewBox="0 0 39 60" version="1.1" xmlns="http://www.w3.org/2000/svg" xmlns:xlink="http://www.w3.org/1999/xlink">
    <!-- Generator: Sketch 48.2 (47327) - http://www.bohemiancoding.com/sketch -->
    <title>dress (2)</title>
    <desc>Created with Sketch.</desc>
    <defs></defs>
    <g id="Order-Request" stroke="none" stroke-width="1" fill="none" fill-rule="evenodd" transform="translate(-850.000000, -733.000000)">
        <g id="Group-23" transform="translate(263.000000, 242.000000)" fill-rule="nonzero">
            <g id="Group-21" transform="translate(0.000000, 165.000000)">
                <g id="Group-16" transform="translate(1.000000, 253.000000)">
                    <g id="Group-7" transform="translate(536.000000, 46.000000)">
                        <g id="dress-(2)" transform="translate(50.000000, 27.000000)">
                            <path d="M31.03875,37.5912891 L19.21875,37.5912891 L7.39875,37.5912891 L3.60949219,59.1419531 C3.53074219,59.5896094 3.87515625,59.9998828 4.32972656,59.9998828 L19.21875,59.9998828 L34.1076562,59.9998828 C34.5622266,59.9998828 34.9066406,59.5896094 34.8278906,59.1419531 L31.03875,37.5912891 Z" id="Shape" fill="#EAA598"></path>
                            <path d="M19.21875,37.5912891 L7.39875,37.5912891 L3.60949219,59.1419531 C3.53074219,59.5896094 3.87515625,59.9998828 4.32972656,59.9998828 L4.82378906,59.9998828 C8.92207031,57.0194531 12.5080078,53.5775391 15.5150391,49.7248828 C16.8671484,47.9925 18.1032422,46.1769141 19.2186328,44.2887891 C20.3340234,46.1769141 21.5701172,47.9925 22.9222266,49.7248828 C25.9292578,53.5775391 29.5151953,57.0194531 33.6134766,59.9998828 L34.1075391,59.9998828 C34.5621094,59.9998828 34.9065234,59.5896094 34.8277734,59.1419531 L31.0385156,37.5912891 L19.21875,37.5912891 Z" id="Shape" fill="#E48E81"></path>
                            <path d="M27.0986719,21.8314453 L15.2786719,21.8314453 C15.2786719,21.8314453 15.2786719,44.3254688 37.2208594,58.9146094 C37.7950781,59.2964062 38.5313672,58.749375 38.3273438,58.0907813 L27.0986719,21.8314453 Z" id="Shape" fill="#9DC6FB"></path>
                            <path d="M22.9637109,36.5230078 C26.0778516,28.3808203 26.1137109,22.095 26.1137109,21.8314453 L15.2786719,21.8314453 C15.2786719,21.8314453 15.2791406,30.8873437 20.8839844,41.2338281 C21.6530859,39.7027734 22.3484766,38.1315234 22.9637109,36.5230078 Z" id="Shape" fill="#80B4FB"></path>
                            <path d="M11.3388281,21.8314453 L23.1588281,21.8314453 C23.1588281,21.8314453 23.1588281,44.3254688 1.21664063,58.9146094 C0.642421875,59.2964062 -0.0938671875,58.749375 0.11015625,58.0907813 L11.3388281,21.8314453 Z" id="Shape" fill="#9DC6FB"></path>
                            <path d="M27.0986719,17.8914844 L28.3333594,14.1874219 C28.816875,12.7367578 29.6315625,11.4185156 30.7128516,10.3372266 L32.2925391,8.75742188 C32.7076172,8.34234375 32.7678516,7.69042969 32.4358594,7.20621094 L27.8576953,0.5296875 C27.4432031,-0.0746484375 26.5923047,-0.179296875 26.0435156,0.306328125 C21.9791016,3.90316406 20.0547656,7.94167969 19.44375,9.42492188 C19.3611328,9.62554687 19.0764844,9.62554687 18.99375,9.42492188 C18.3827344,7.94167969 16.4583984,3.90316406 12.3939844,0.306328125 C11.8451953,-0.179296875 10.9941797,-0.0746484375 10.5798047,0.5296875 L6.00152344,7.20632812 C5.66953125,7.69042969 5.72976563,8.34246094 6.14484375,8.75753906 L7.72464844,10.3373437 C8.8059375,11.4186328 9.620625,12.7367578 10.1041406,14.1875391 L11.3388281,17.8916016 L27.0986719,17.8916016 L27.0986719,17.8914844 Z" id="Shape" fill="#9DC6FB"></path>
                            <path d="M31.3976953,5.69203125 L27.2225391,10.4532422 C26.4926953,11.2855078 25.9592578,12.2711719 25.6614844,13.3373437 L24.39,17.8914844 L27.0987891,17.8914844 L28.3334766,14.1874219 C28.8169922,12.7367578 29.6316797,11.4185156 30.7129687,10.3373438 L32.2927734,8.75753906 C32.7078516,8.34246094 32.7680859,7.69054688 32.4360937,7.20632813 L31.3976953,5.69203125 Z" id="Shape" fill="#80B4FB"></path>
                            <path d="M15.9986719,19.1771484 C15.6201563,19.1771484 15.2663672,18.9401953 15.1352344,18.5627344 C15.1285547,18.5441016 14.8082813,17.6507812 14.0896875,16.7177344 C13.7816016,16.3176563 13.85625,15.7436719 14.2562109,15.4357031 C14.6562891,15.1276172 15.2302734,15.2023828 15.5382422,15.6022266 C16.4520703,16.7891016 16.8466406,17.9176172 16.8629297,17.9650781 C17.0273438,18.4423828 16.7736328,18.9626953 16.2963281,19.1269922 C16.1978906,19.1610937 16.0973438,19.1771484 15.9986719,19.1771484 Z" id="Shape" fill="#80B4FB"></path>
                            <path d="M22.6938281,19.1757422 C22.5944531,19.1757422 22.4934375,19.1593359 22.3942969,19.1248828 C21.9183984,18.9594141 21.665625,18.4415625 21.8295703,17.9651953 C21.8459766,17.9177344 22.2403125,16.7891016 23.1542578,15.6022266 C23.4622266,15.2022656 24.0359766,15.1275 24.4362891,15.4357031 C24.83625,15.7437891 24.9108984,16.3176563 24.6028125,16.7177344 C23.8803516,17.6559375 23.5605469,18.5538281 23.5573828,18.5629688 C23.4253125,18.939375 23.0716406,19.1757422 22.6938281,19.1757422 Z" id="Shape" fill="#80B4FB"></path>
                            <path d="M19.3463672,19.1769141 C18.8415234,19.1769141 18.4321875,18.7676953 18.4321875,18.2627344 L18.4321875,15.8003906 C18.4321875,15.2954297 18.8415234,14.8862109 19.3463672,14.8862109 C19.8512109,14.8862109 20.2604297,15.2954297 20.2604297,15.8003906 L20.2604297,18.2628516 C20.2605469,18.7676953 19.8513281,19.1769141 19.3463672,19.1769141 Z" id="Shape" fill="#80B4FB"></path>
                            <path d="M17.2477734,30.3819141 C17.0995312,30.3819141 16.9494141,30.3458203 16.8101953,30.2697656 C16.3672266,30.0276562 16.2043359,29.4721875 16.4464453,29.0291016 C18.6101953,25.070625 18.3378516,21.7027734 18.3348047,21.6691406 C18.2898047,21.1662891 18.6609375,20.7221484 19.1637891,20.6771484 C19.6652344,20.6314453 20.1107812,21.0031641 20.1557812,21.5060156 C20.1700781,21.665625 20.4776953,25.4657812 18.0507422,29.9060156 C17.8846875,30.2098828 17.5712109,30.3819141 17.2477734,30.3819141 Z" id="Shape" fill="#80B4FB"></path>
                            <path d="M13.6860937,27.0990234 C13.5148828,27.0990234 13.3417969,27.0509766 13.1876953,26.9504297 C12.7647656,26.6748047 12.6454687,26.1083203 12.9212109,25.6853906 C14.1277734,23.835 14.1417187,21.6098438 14.1417187,21.5875781 C14.1417187,21.0826172 14.5510547,20.6733984 15.0558984,20.6733984 C15.5607422,20.6733984 15.9700781,21.0826172 15.9700781,21.5875781 C15.9700781,21.7006641 15.9528516,24.3834375 14.4528516,26.6840625 C14.2774219,26.9528906 13.9846875,27.0990234 13.6860937,27.0990234 Z" id="Shape" fill="#80B4FB"></path>
                            <polygon id="Shape" fill="#EAA598" points="11.3388281 17.8914844 27.0987891 17.8914844 27.0987891 21.8314453 11.3388281 21.8314453"></polygon>
                            <polygon id="Shape" fill="#E48E81" points="24.39 17.8914844 27.0987891 17.8914844 27.0987891 21.8314453 24.39 21.8314453"></polygon>
                        </g>
                    </g>
                </g>
            </g>
        </g>
    </g>
</svg>