<?xml version="1.0" encoding="UTF-8"?>
<svg width="50px" height="50px" viewBox="0 0 50 50" version="1.1" xmlns="http://www.w3.org/2000/svg" xmlns:xlink="http://www.w3.org/1999/xlink">
    <!-- Generator: Sketch 48.2 (47327) - http://www.bohemiancoding.com/sketch -->
    <title>right-arrow (1)</title>
    <desc>Created with Sketch.</desc>
    <defs></defs>
    <g id="Group-36" stroke="none" stroke-width="1" fill="none" fill-rule="evenodd" transform="translate(-935.000000, -30.000000)">
        <g id="Group-35" transform="translate(0.000000, -2.000000)" fill="#FFFFFF" fill-rule="nonzero">
            <g id="right-arrow-(1)" transform="translate(960.000000, 57.000000) scale(1, -1) rotate(90.000000) translate(-960.000000, -57.000000) translate(935.000000, 32.000000)">
                <path d="M41.6666667,0 L8.33333333,0 C3.73854167,0 0,3.73854167 0,8.33333333 L0,16.6666667 C0,17.8166667 0.933333333,18.75 2.08333333,18.75 C3.23333333,18.75 4.16666667,17.8166667 4.16666667,16.6666667 L4.16666667,8.33333333 C4.16666667,6.03541667 6.03541667,4.16666667 8.33333333,4.16666667 L41.6666667,4.16666667 C43.9645833,4.16666667 45.8333333,6.03541667 45.8333333,8.33333333 L45.8333333,41.6666667 C45.8333333,43.9645833 43.9645833,45.8333333 41.6666667,45.8333333 L8.33333333,45.8333333 C6.03541667,45.8333333 4.16666667,43.9645833 4.16666667,41.6666667 L4.16666667,33.3333333 C4.16666667,32.1833333 3.23333333,31.25 2.08333333,31.25 C0.933333333,31.25 0,32.1833333 0,33.3333333 L0,41.6666667 C0,46.2614583 3.73854167,50 8.33333333,50 L41.6666667,50 C46.2614583,50 50,46.2614583 50,41.6666667 L50,8.33333333 C50,3.73854167 46.2614583,0 41.6666667,0 Z" id="Shape"></path>
                <path d="M20.4208333,34.8239583 C20.8260417,35.21875 21.35,35.4145833 21.875,35.4145833 C22.4177083,35.4145833 22.959375,35.2041667 23.3677083,34.7854167 L30.0302083,27.9447917 C30.8166667,27.15625 31.25,26.1104167 31.25,24.9979167 C31.25,23.884375 30.815625,22.8375 30.0489583,22.0708333 L23.3677083,15.2104167 C22.565625,14.3864583 21.2458333,14.3677083 20.421875,15.171875 C19.5979167,15.975 19.5802083,17.29375 20.3833333,18.1177083 L27.0645833,25.0166667 L20.3833333,31.8770833 C19.5791667,32.7020833 19.596875,34.0208333 20.4208333,34.8239583 Z" id="Shape"></path>
            </g>
        </g>
    </g>
</svg>