<?xml version="1.0" encoding="UTF-8"?>
<svg width="54px" height="54px" viewBox="0 0 54 54" version="1.1" xmlns="http://www.w3.org/2000/svg" xmlns:xlink="http://www.w3.org/1999/xlink">
    <!-- Generator: Sketch 48.2 (47327) - http://www.bohemiancoding.com/sketch -->
    <title>Group 34</title>
    <desc>Created with Sketch.</desc>
    <defs></defs>
    <g id="Home" stroke="none" stroke-width="1" fill="none" fill-rule="evenodd" transform="translate(-354.000000, -4638.000000)">
        <g id="Group-30" transform="translate(187.000000, 4323.000000)">
            <g id="Group-29" transform="translate(0.000000, 147.000000)">
                <g id="Group-26-Copy" transform="translate(0.000000, 62.000000)">
                    <g id="Group-34" transform="translate(167.000000, 106.000000)">
                        <circle id="Oval-4" fill="#41E2CF" cx="27" cy="27" r="27"></circle>
                        <g id="woman-(1)" transform="translate(10.000000, 9.000000)" fill-rule="nonzero">
                            <path d="M13.7331848,23.8276977 L13.7331848,20.6707764 C10.2032776,17.7959289 10.6663513,10.7885742 10.6663513,10.7885742 C16.0903015,9.32162477 18.877533,6.00100706 18.877533,6.00100706 C20.7962951,9.757782 24.0391846,10.8330688 24.0391846,10.8330688 C24.0391846,10.8330688 24.4489746,17.7412719 20.9822387,20.6312256 L20.9992676,20.6444092 L20.9992676,23.8276977 C20.9992676,23.8276977 24.2828064,25.5484314 27.3979797,27.2958069 C28.5869751,20.0055542 30.6378479,5.68434189e-14 17.32901,5.68434189e-14 C3.99682617,5.68434189e-14 6.078186,20.075592 7.26608278,27.334259 C10.4013062,25.5737 13.7331848,23.8276977 13.7331848,23.8276977 Z" id="Shape" fill="#CA6D36"></path>
                            <path d="M27.6259461,25.7947998 C24.4454041,24.004303 20.9992676,22.1984253 20.9992676,22.1984253 L20.9992676,23.8276977 C20.9992676,23.8276977 24.2828064,25.5484314 27.3979797,27.2958069 C27.4718628,26.8420715 27.5493164,26.3391723 27.6259461,25.7947998 Z" id="Shape" fill="#AD5E2E"></path>
                            <path d="M7.26608278,27.334259 C10.4013062,25.5737 13.7331848,23.8276977 13.7331848,23.8276977 L13.7331848,22.1984253 C13.7329102,22.1987 10.2367859,24.0306701 7.03729252,25.8335266 C7.11447145,26.3784485 7.19219967,26.881073 7.26608278,27.334259 Z" id="Shape" fill="#AD5E2E"></path>
                            <path d="M20.9992676,23.8276977 C20.9992676,23.8276977 30.5191955,28.81604 32.5170593,30.4315796 C34.1251831,31.7315369 34.604187,34.5462341 34.7297058,35.5951538 C34.7555237,35.8107605 34.5871582,36 34.3701782,36 L0.362274187,36 C0.145294172,36 -0.0233459297,35.8107605 0.00274658203,35.5951538 C0.128265398,34.5462341 0.607269305,31.7315369 2.21539303,30.4315796 C4.21325684,28.81604 13.7334594,23.8276977 13.7334594,23.8276977 L16.3317261,28.8860779 C16.7643127,29.7284546 17.9681396,29.7284546 18.4007263,28.8860779 L20.9992676,23.8276977 Z" id="Shape" fill="#FF94D4"></path>
                            <path d="M0.143646258,34.6896057 C0.0744323906,35.0529785 0.0302124375,35.3660889 0.00274658203,35.5951538 C-0.0230712891,35.8107605 0.145294172,36 0.362548828,36 L34.3701782,36 C34.5871582,36 34.7557984,35.8107605 34.7299805,35.5954285 C34.7025146,35.3663635 34.65802,35.0529785 34.5888062,34.6896057 L0.143646258,34.6896057 Z" id="Shape" fill="#FF73C6"></path>
                            <path d="M18.4007263,28.8860779 L20.9992676,23.8276977 L20.9992676,20.6444092 C20.0887756,21.3975219 18.9102172,21.8746033 17.384491,21.8795471 C15.8433838,21.8847656 14.6527405,21.4057617 13.7334594,20.6449585 L13.7334594,23.8276977 L16.3317261,28.8860779 C16.7643127,29.7284546 17.9681396,29.7284546 18.4007263,28.8860779 Z" id="Shape" fill="#FFBD86"></path>
                            <path d="M13.7331848,20.6449585 L13.7331848,21.980896 C14.6392822,22.7189026 15.8082275,23.1849976 17.3161011,23.1899414 C18.8756104,23.1951599 20.0753174,22.7037964 20.9992676,21.9273377 L20.9992676,20.6444092 C20.0887756,21.3975219 18.9099426,21.8746033 17.384491,21.8795471 C15.8433838,21.884491 14.6527405,21.4057617 13.7331848,20.6449585 Z" id="Shape" fill="#FFA664"></path>
                            <path d="M10.666626,10.7885742 C10.666626,10.7885742 9.93493652,21.8551025 17.3161011,21.8795471 C24.6975403,21.9039917 24.0391846,10.8330688 24.0391846,10.8330688 C24.0391846,10.8330688 20.7962951,9.75805664 18.877533,6.0012817 C18.877533,6.0012817 16.0903015,9.32162477 10.666626,10.7885742 Z" id="Shape" fill="#FED2A4"></path>
                            <path d="M17.3161011,20.5691528 C11.630127,20.5502014 10.7586365,13.9798279 10.6581116,10.9624328 C10.6026306,12.3648377 10.480133,21.8570252 17.3161011,21.8795471 C24.3836059,21.902893 24.080658,11.7561951 24.0422058,10.8929443 C23.9397583,13.8548584 23.074585,20.5881043 17.3161011,20.5691528 Z" id="Shape" fill="#FFBD86"></path>
                            <path d="M17.9538574,15.6200867 C18.010437,15.6200867 18.0681152,15.6189881 18.1268921,15.6165161 C18.4281922,15.6038818 18.6624756,15.3495484 18.6498413,15.0482483 C18.637207,14.7469482 18.3834229,14.5137634 18.0815735,14.5252991 C17.8074646,14.5371094 17.3246155,14.5200805 17.1741028,14.2805786 C16.981018,13.9737854 17.2015686,13.2484131 17.4111328,12.8545532 C17.5531311,12.589508 17.4539795,12.2588196 17.1886597,12.1162719 C16.9233398,11.973175 16.592102,12.0726013 16.4492797,12.3379211 C16.3649597,12.4944763 15.6437073,13.8938598 16.2479553,14.8595581 C16.5640869,15.3646545 17.1375732,15.6200867 17.9538574,15.6200867 Z" id="Shape" fill="#FFA664"></path>
                            <path d="M14.8392334,11.8270569 C14.8392334,11.1989136 14.442627,10.7070008 13.9361572,10.7070008 C13.4296875,10.7070008 13.0328064,11.1989136 13.0328064,11.8270569 C13.0328064,12.4552002 13.4296875,12.9471131 13.9361572,12.9471131 C14.442627,12.9471131 14.8392334,12.4552002 14.8392334,11.8270569 Z" id="Shape" fill="#433F43"></path>
                            <path d="M20.7962951,12.9471131 C21.3027649,12.9471131 21.699646,12.4552002 21.699646,11.8273316 C21.699646,11.1991883 21.3027649,10.7070008 20.7962951,10.7070008 C20.2901001,10.7070008 19.893219,11.1991883 19.893219,11.8273316 C19.893219,12.4552002 20.2901001,12.9471131 20.7962951,12.9471131 Z" id="Shape" fill="#433F43"></path>
                            <path d="M14.5101929,16.2276306 C14.2580566,16.3929748 14.1877441,16.7316285 14.3530883,16.9837646 C14.397583,17.0516052 15.4646301,18.6448975 17.3663635,18.6448975 C19.2678223,18.6448975 20.3348694,17.0516052 20.379364,16.9837646 C20.5447082,16.7316285 20.4743957,16.3929748 20.2222595,16.2276306 C19.9701233,16.0622864 19.6317444,16.1325989 19.4661255,16.3847351 C19.4584351,16.3965454 18.6847229,17.5528564 17.3660889,17.5528564 C16.0631104,17.5528564 15.2726441,16.3943481 15.2660523,16.3847351 C15.100708,16.1325989 14.7623291,16.0622864 14.5101929,16.2276306 Z" id="Shape" fill="#FF646F"></path>
                        </g>
                    </g>
                </g>
            </g>
        </g>
    </g>
</svg>