<?xml version="1.0" encoding="UTF-8"?>
<svg width="90px" height="90px" viewBox="0 0 90 90" version="1.1" xmlns="http://www.w3.org/2000/svg" xmlns:xlink="http://www.w3.org/1999/xlink">
    <!-- Generator: Sketch 48.2 (47327) - http://www.bohemiancoding.com/sketch -->
    <title>Group 25</title>
    <desc>Created with Sketch.</desc>
    <defs></defs>
    <g id="Home" stroke="none" stroke-width="1" fill="none" fill-rule="evenodd" transform="translate(-915.000000, -4646.000000)">
        <g id="Group-30" transform="translate(187.000000, 4323.000000)">
            <g id="Group-29" transform="translate(0.000000, 147.000000)">
                <g id="Group-28" transform="translate(449.000000, 0.000000)">
                    <g id="Group-25" transform="translate(279.000000, 176.000000)">
                        <circle id="Oval-4" fill="#41E2CF" cx="45" cy="45" r="45"></circle>
                        <g id="man-(3)" transform="translate(24.000000, 15.000000)" fill-rule="nonzero">
                            <polygon id="Shape" fill="#EF4C35" points="23.5547159 48.0861397 24.7875118 44.8030362 21.0055176 42.0200831 17.2110397 44.8126566 18.5824163 48.0861397"></polygon>
                            <polygon id="Shape" fill="#DD3E2B" points="18.5824163 48.0861397 18.6546845 48.2588502 16.9618235 58.7536492 25.1887087 58.7536492 23.4939007 48.2487716 23.5547159 48.0861397"></polygon>
                            <polygon id="Shape" fill="#D2D2D7" points="18.0168695 58.7536492 19.7303458 48.1313788 18.0745924 44.1774759 12.7620256 39.12638 13.8020683 46.7002178 17.1780552 58.7536492"></polygon>
                            <polygon id="Shape" fill="#E4E4EA" points="24.9881675 58.7536492 28.4030945 46.5610645 29.4437099 38.9855086 23.9159421 44.162358 22.4219043 48.141572 24.1337772 58.7536492"></polygon>
                            <path d="M25.0667348,46.2896295 C26.1600337,47.0941994 26.8212127,46.3779317 27.0681383,46.0052526 L30.5513249,38.8458971 L26.0559263,35.8786661 L24.9948102,37.7893622 L21.0410218,41.8936425 L17.1935167,38.1457781 L16.447815,35.5540894 L11.4601684,38.8456681 L14.8612374,45.8363216 C14.9552661,46.0223175 15.6450775,47.2572895 16.9604491,46.2905457 L21.0055176,43.3135796 L24.8608107,46.1505906 C24.9219695,46.1878127 24.9895419,46.2327083 25.0667348,46.2896295 Z" id="Shape" fill="#F5F5F7"></path>
                            <path d="M21.5790815,0.114529531 L20.52415,0.114529531 C13.3173793,0.114529531 7.45472715,5.97798338 7.45472715,13.1844105 L7.45472715,14.92755 L7.45472715,16.5590231 L7.45472715,19.3156344 C7.45472715,19.3156344 10.4302044,19.0203773 10.7962407,17.5774197 L10.7942937,17.5759308 C10.9199326,17.4392971 11.0249562,17.2836515 11.0990568,17.1095666 C12.7868785,17.0587155 20.6712059,16.9973276 25.1735908,11.5595801 C25.7109634,13.1314979 27.528547,16.1078913 31.0260499,17.045201 C31.0982035,17.2348619 31.2052886,17.405969 31.3363104,17.5541702 L31.3073344,17.5775342 C31.6731417,19.0204918 34.648848,19.3156344 34.648848,19.3156344 L34.648848,16.5477992 L34.648848,14.92755 L34.648848,13.1844105 C34.648848,5.97798338 28.7856232,0.114529531 21.5790815,0.114529531 Z M31.4595588,16.724378 L31.6402743,16.5476847 L31.6659263,16.5476847 L31.3715854,16.8420256 L31.4595588,16.724378 Z M31.3688367,16.8420256 L31.4050407,16.7417585 L31.5171845,16.5476847 L31.5628074,16.5476847 L31.429471,16.7913752 L31.3688367,16.8420256 Z M31.0221558,16.9913026 L31.0173456,16.9831378 L31.3396317,16.706079 L31.2635841,16.7934424 L31.0279969,17.0004199 L31.0221558,16.9913026 Z M31.3801797,16.8704289 L31.2042541,17.0792163 C31.2028563,17.0789872 31.2024569,17.0789872 31.2010591,17.0785291 L31.1764974,17.0721154 C31.1725036,17.0710847 31.1679108,17.0694812 31.1645161,17.0684505 L31.4512688,16.7414687 L31.458857,16.7373456 L31.3801797,16.8704289 Z" id="Shape" fill="#694B4B"></path>
                            <path d="M9.75837413,16.5589086 L9.75837413,14.9274354 L9.75837413,13.184296 C9.75837413,6.18688525 15.2859129,0.457545475 22.2034965,0.130449135 C21.9961981,0.120485066 21.7882124,0.114415001 21.5790815,0.114415001 L20.52415,0.114415001 C13.3173793,0.114415001 7.45472715,5.97786885 7.45472715,13.184296 L7.45472715,14.9274354 L7.45472715,16.5589086 L7.45472715,19.3154053 C7.45472715,19.3154053 8.76952616,19.184269 9.75848866,18.6732383 L9.75848866,16.5589086 L9.75837413,16.5589086 Z" id="Shape" fill="#563B3B"></path>
                            <path d="M33.0791062,17.4207433 C32.5789558,17.2648686 32.0356277,17.3559196 31.6139299,17.6658365 C31.1925758,17.9759825 30.9437031,18.4684595 30.9437031,18.9917449 L30.9437031,23.6809275 C30.9437031,24.2039838 31.1924613,24.6961172 31.6139299,25.0058051 C31.9002538,25.2166539 32.2425825,25.3262587 32.5893779,25.3262587 C32.7528116,25.3262587 32.9185358,25.302093 33.0786481,25.2515854 C33.394177,25.1535482 33.7038648,25.0116461 33.9995801,24.8302313 C34.1734359,24.7237188 34.3261038,24.5850236 34.4496811,24.4229643 C34.6310959,24.3292791 34.7936133,24.2028385 34.9291017,24.0499416 C35.5939457,23.2980552 35.9602111,22.3344038 35.9602111,21.3357063 C35.9602111,19.531179 34.8025466,17.9577723 33.0791062,17.4207433 Z" id="Shape" fill="#FBCB99"></path>
                            <path d="M10.5370604,17.6656075 C10.1154772,17.3556905 9.57169099,17.2647541 9.07211318,17.4201707 C7.34890186,17.9577723 6.19043566,19.531179 6.19043566,21.3355917 C6.19043566,23.1408062 7.34878733,24.7140984 9.07211318,25.2514709 C9.23234,25.3018639 9.39760611,25.3261442 9.56195598,25.3261442 C9.90829329,25.3261442 10.2506221,25.2165394 10.5370604,25.0059196 C10.9589872,24.6960027 11.2076308,24.2038693 11.2076308,23.6806984 L11.2076308,18.9909432 C11.2076308,18.4682304 10.9589872,17.9757534 10.5370604,17.6656075 Z" id="Shape" fill="#EDBA89"></path>
                            <path d="M25.5682596,31.8551291 C25.2447137,31.5455558 24.8106468,31.3831529 24.3599731,31.3997597 L24.3040826,31.4023939 C24.2036402,31.4058298 24.1035414,31.4188861 24.0051606,31.4403032 C23.3696362,31.5817471 22.7219717,31.6535572 22.0816371,31.6535572 L20.0698114,31.6535572 C19.4100067,31.6535572 18.7437885,31.5776241 18.0887941,31.4275904 C17.599982,31.3150079 17.0875769,31.431828 16.6958859,31.74415 C16.3038513,32.0563575 16.0754795,32.5306243 16.0754795,33.0312329 L16.0754795,37.8178801 L16.0745632,37.8340287 C16.048565,38.3088682 16.22872,38.7717965 16.5692163,39.1039322 L19.8755693,42.3245026 C20.1829665,42.6238828 20.5951583,42.7907523 21.0233842,42.7907523 C21.0323175,42.7907523 21.0414799,42.7907523 21.0500696,42.7907523 C21.4880305,42.7835369 21.9053762,42.6023512 22.2088794,42.2865933 L25.6152167,38.7508376 C25.9108174,38.4442421 26.07574,38.0350281 26.07574,37.6095509 L26.07574,33.0439457 C26.0756254,32.5949899 25.8924927,32.1656187 25.5682596,31.8551291 Z" id="Shape" fill="#FBCB99"></path>
                            <path d="M21.3570088,41.8301931 L18.0503121,38.6099663 C17.7098159,38.2780597 17.5294318,37.8153604 17.55543,37.3401774 L17.5569189,37.3239142 L17.5569189,32.537267 C17.5569189,32.1162565 17.7198945,31.7154031 18.0042713,31.4128161 C17.5414574,31.3319582 17.0651291,31.4502672 16.696115,31.7440355 C16.3040804,32.056243 16.0757085,32.5305098 16.0757085,33.0311183 L16.0757085,37.8177656 L16.0747923,37.8339142 C16.0487941,38.3087536 16.228949,38.771682 16.5694453,39.1038177 L19.8757983,42.3243881 C20.1831956,42.6237682 20.5953874,42.7906378 21.0236133,42.7906378 C21.0325466,42.7906378 21.041709,42.7906378 21.0502987,42.7906378 C21.4882596,42.7834224 21.9056052,42.6022367 22.2089939,42.2864788 L22.2236537,42.2711318 C21.8989625,42.2151269 21.5959174,42.0633753 21.3570088,41.8301931 Z" id="Shape" fill="#EDBA89"></path>
                            <path d="M30.6956322,16.0776555 C30.4965798,16.0034404 30.3087514,15.9170851 30.1253896,15.8251179 C27.3603032,14.5349427 26.2126027,12.8568561 25.7505906,11.8557534 C25.7232181,11.8179587 25.6956164,11.7762699 25.6675567,11.7239299 C25.337139,11.1163508 24.8220997,11.5009409 24.8220997,11.5009409 L24.8198091,11.4996811 C22.2376263,13.4802403 19.4171076,14.6384774 17.07223,15.3123692 C16.1594296,15.5820862 15.2849966,15.77713 14.4941702,15.9189176 C12.9224815,16.207532 11.9119874,16.2453267 11.9119874,16.2453267 C11.0510689,16.3072872 10.384278,17.024013 10.384278,17.886993 L10.384278,24.6012868 C10.384278,29.9419133 14.7295284,34.2865911 20.0696968,34.2865911 L22.0815226,34.2865911 C27.4215765,34.2865911 31.7664833,29.9420278 31.7664833,24.6012868 L31.7664833,17.6194521 C31.7665978,16.9320458 31.3391736,16.3177094 30.6956322,16.0776555 Z" id="Shape" fill="#FBCB99"></path>
                            <path d="M12.3591107,24.6012868 L12.3591107,17.886993 C12.3591107,17.024013 13.0256726,16.3074018 13.8864765,16.2453267 C13.8864765,16.2453267 14.896627,16.207532 16.4686593,15.9189176 C17.2598293,15.77713 18.1342623,15.5820862 19.0472917,15.3123692 C21.1221087,14.7155558 23.5701774,13.7386189 25.8963867,12.1490636 C25.8416416,12.046216 25.7929665,11.9481788 25.7504761,11.8556389 C25.7231035,11.8178442 25.6955019,11.7761554 25.6674422,11.7238154 C25.3370245,11.1162362 24.8219852,11.5008264 24.8219852,11.5008264 L24.8196946,11.4995666 C22.2375118,13.4801258 19.416993,14.6383629 17.0721154,15.3122547 C16.1593151,15.5819717 15.2848821,15.7770155 14.4940557,15.9188031 C12.9223669,16.2074175 11.9118729,16.2452122 11.9118729,16.2452122 C11.0509544,16.3071727 10.3841635,17.0238985 10.3841635,17.8868785 L10.3841635,24.6011722 C10.3841635,29.9417988 14.7294139,34.2864765 20.0695823,34.2864765 L22.0436133,34.2864765 C16.703903,34.2865911 12.3591107,29.9419133 12.3591107,24.6012868 Z" id="Shape" fill="#EDBA89"></path>
                            <g id="Group" transform="translate(0.000000, 38.138334)" fill="#324A5E">
                                <path d="M2.22004042,20.6153155 L18.2597867,20.6153155 L12.5120076,0.095403099 L6.58407366,2.56569055 L6.57605659,2.56866831 C4.1684168,3.41378172 0.0940287447,6.4795082 0.0940287447,12.6075253 L0.0940287447,18.491709 C0.125867954,19.1264316 0.394439704,20.6153155 2.22004042,20.6153155 Z" id="Shape"></path>
                                <path d="M41.823894,18.5630609 L41.823894,12.6078689 C41.823894,6.40449135 37.5863014,3.33074781 35.3330474,2.56557602 L29.6281024,0.188401078 L23.9060925,20.61543 L39.7022344,20.61543 C41.4626679,20.6153155 41.7753335,19.230539 41.823894,18.5630609 Z" id="Shape"></path>
                            </g>
                            <g id="Group" transform="translate(0.000000, 38.138334)" fill="#283D4C">
                                <path d="M12.5120076,0.0955176286 L6.58407366,2.56580508 L6.57605659,2.56878284 C4.1684168,3.41389625 0.0940287447,6.47962273 0.0940287447,12.6076398 L0.0940287447,18.4918235 C0.125867954,19.1263171 0.394554233,20.615201 2.22004042,20.615201 L2.48609252,20.615201 L2.48609252,12.6076398 C2.48609252,6.4795082 6.56036605,3.41378172 8.96812037,2.56878284 L8.97602291,2.56580508 L12.7620256,0.988046261 L12.5120076,0.0955176286 Z" id="Shape"></path>
                                <path d="M35.1438446,20.6153155 L35.1438446,12.4344711 C35.1438446,11.9206917 34.7274152,11.5043768 34.2137503,11.5043768 C33.6999708,11.5043768 33.283656,11.9206917 33.283656,12.4344711 L33.283656,20.6153155 L35.1438446,20.6153155 Z" id="Shape"></path>
                                <path d="M8.86721985,20.6153155 L8.86721985,12.4344711 C8.86721985,11.9206917 8.45090501,11.5043768 7.93712553,11.5043768 C7.42334606,11.5043768 7.00703121,11.9206917 7.00703121,12.4344711 L7.00703121,20.6153155 L8.86721985,20.6153155 Z" id="Shape"></path>
                            </g>
                            <path d="M22.0195621,25.3895935 C22.3614327,25.3895935 22.639625,25.6677858 22.639625,26.0096564 C22.639625,26.3515271 22.3614327,26.6297193 22.0195621,26.6297193 L20.4351606,26.6297193 C20.0932899,26.6297193 19.8150977,26.3515271 19.8150977,26.0096564 L19.8150977,22.9872221 C19.8150977,22.6453514 20.0932899,22.3671592 20.4351606,22.3671592 C20.7770312,22.3671592 21.0552234,22.6453514 21.0552234,22.9872221 L21.0552234,25.3895935 L22.0195621,25.3895935 Z" id="Shape" fill="#EDBA89"></path>
                        </g>
                    </g>
                </g>
            </g>
        </g>
    </g>
</svg>