<?xml version="1.0" encoding="UTF-8"?>
<svg width="219px" height="170px" viewBox="0 0 219 170" version="1.1" xmlns="http://www.w3.org/2000/svg" xmlns:xlink="http://www.w3.org/1999/xlink">
    <!-- Generator: Sketch 48.2 (47327) - http://www.bohemiancoding.com/sketch -->
    <title>Group 17</title>
    <desc>Created with Sketch.</desc>
    <defs></defs>
    <g id="Home" stroke="none" stroke-width="1" fill="none" fill-rule="evenodd" transform="translate(-852.000000, -3518.000000)">
        <g id="Group-23" transform="translate(0.000000, 3146.000000)">
            <g id="Group-22" transform="translate(187.000000, 89.000000)">
                <g id="Group-20" transform="translate(549.000000, 224.000000)">
                    <g id="Group-17" transform="translate(116.000000, 59.000000)">
                        <path d="M108.330247,170 C168.159391,170 218.406607,146.446871 218.406607,99.2133371 C218.406607,68.9500082 166.132759,67.3062881 149.869865,52.3459399 C130.002103,34.0694493 118.839167,0 75.722769,0 C24.6537661,0 0,37.2425864 0,84.4761207 C0,131.709655 48.5011037,170 108.330247,170 Z" id="Oval-3-Copy" fill="#41E2CF"></path>
                        <g id="iron" transform="translate(41.000000, 25.000000)" fill="#15226E" fill-rule="nonzero">
                            <path d="M129.183432,38.5643278 C128.977005,36.9497936 128.530985,35.4172465 127.889682,33.9958726 L127.889682,19.9713149 C127.889682,15.6923349 125.625884,11.9339328 122.234434,9.8256191 C121.31135,4.28313679 116.950118,0.0720813679 111.721521,0.0720813679 L111.721787,8.03145637 C112.128538,8.03145637 112.519634,8.1803066 112.874646,8.43502358 C107.777388,9.79537146 104.010761,14.4505896 104.010761,19.9710495 L104.010761,24.4816627 L97.2528007,24.4816627 C62.9270342,24.4816627 30.5050118,42.1966981 12.3495283,71.2447818 C12.2476415,71.4079599 12.1576946,71.5783019 12.0802182,71.7544811 C8.15969929,80.6846993 4.28322524,89.5159493 0.339622642,98.4989682 C-0.0695165094,99.4313384 -0.100825472,100.472229 0.227387972,101.411232 C-1.42429245,111.183608 6.1426592,119.997877 15.9232606,119.997877 L104.010495,119.997877 C112.788414,119.997877 119.929776,112.856515 119.929776,104.078597 C119.929776,103.344959 119.877506,102.617423 119.778803,101.898113 L134.683196,86.9937205 C135.573113,86.1038031 135.989682,84.8456073 135.806604,83.6004127 L129.183432,38.5643278 Z M111.970401,19.9715802 C111.970401,17.7770342 113.755808,15.9916274 115.950354,15.9916274 C118.1449,15.9916274 119.930307,17.7770342 119.930307,19.9715802 L119.930307,25.9685731 C116.468278,24.3673054 113.708579,24.4819281 111.970666,24.4819281 L111.970666,19.9715802 L111.970401,19.9715802 Z M21.2171285,72.2403007 L35.8227594,72.2403007 C38.0173054,72.2403007 39.8027123,74.0257075 39.8027123,76.2202535 C39.8027123,78.4147995 38.0173054,80.2002064 35.8227594,80.2002064 L17.0660377,80.2002064 C19.4463149,74.777388 19.0002948,75.4651238 21.2171285,72.2403007 Z M104.010761,112.038768 L15.9235259,112.038768 C11.534434,112.038768 7.96388561,108.467954 7.96388561,104.079127 L111.970401,104.079127 C111.970401,108.467954 108.399587,112.038768 104.010761,112.038768 Z M114.301857,96.1192217 L10.0775059,96.1192217 L13.5719045,88.1595814 L35.8230248,88.1595814 C42.4063974,88.1595814 47.7626179,82.8036262 47.7626179,76.2199882 C47.7626179,69.6363502 42.4066627,64.280395 35.8230248,64.280395 L27.3791568,64.280395 C44.660908,44.3766509 70.3504422,32.4415684 97.2533314,32.4415684 L113.185613,32.4415684 C117.296904,32.4415684 120.781486,35.5180719 121.29145,39.5972583 C121.295165,39.6259139 121.29888,39.6543042 121.303125,39.6826946 L127.641333,82.7797465 L114.301857,96.1192217 Z" id="Shape"></path>
                            <path d="M116.790654,67.7665684 L113.805159,43.8873821 C113.556279,41.8958137 111.863208,40.4012087 109.855985,40.4012087 C95.284316,40.4012087 78.2670991,39.2504717 57.9690743,49.8551887 C47.0974351,55.5356427 51.3944575,72.2400354 63.7636203,72.2400354 L112.841215,72.2400354 C115.234228,72.2403007 117.087559,70.1407429 116.790654,67.7665684 Z M63.7638856,64.2806604 C59.6910672,64.2806604 58.1524175,58.7408314 61.6553066,56.9105837 C79.815566,47.4223762 96.1262087,48.3613797 106.342748,48.3613797 L108.332989,64.2806604 L63.7638856,64.2806604 Z" id="Shape"></path>
                            <circle id="Oval" cx="92.0701061" cy="84.1804245" r="3.97995283"></circle>
                            <circle id="Oval" cx="107.989387" cy="84.1804245" r="3.97995283"></circle>
                        </g>
                    </g>
                </g>
            </g>
        </g>
    </g>
</svg>